<svg width="48" height="43" viewBox="0 0 48 43" fill="none" xmlns="http://www.w3.org/2000/svg">
<path d="M3.2 37.6H24.8V40C24.8 41.325 25.875 42.4 27.2 42.4H30.4C31.1 42.4 31.7625 42.0875 32.2125 41.5625C32.225 41.5625 32.2375 41.5625 32.25 41.55C32.8375 42.1 33.6 42.4 34.4 42.4H44C45.325 42.4 46.4 41.325 46.4 40C46.4 39.5875 46.2875 39.175 46.075 38.825C47.1625 38.15 47.525 36.7375 46.875 35.625C47.475 35.25 47.875 34.625 47.975 33.925C48.075 33.225 47.85 32.5125 47.375 32C48.0125 31.3 48.175 30.2875 47.7875 29.425C47.4 28.5625 46.5375 28 45.5875 28H43.1875V3.2C43.1875 1.4375 41.75 0 39.9875 0H3.2C1.4375 0 0 1.4375 0 3.2V34.4C0 36.1625 1.4375 37.6 3.2 37.6ZM30.4 40.8H27.2C26.7625 40.8 26.4 40.4375 26.4 40V32.8C26.4 32.3625 26.7625 32 27.2 32H30.4C30.8375 32 31.2 32.3625 31.2 32.8V40C31.2 40.4375 30.8375 40.8 30.4 40.8ZM46.4 30.4C46.4 30.8375 46.0375 31.2 45.6 31.2H43.2C42.7625 31.2 42.4 31.5625 42.4 32C42.4 32.4375 42.7625 32.8 43.2 32.8H45.6C46.0375 32.8 46.4 33.1625 46.4 33.6C46.4 34.0375 46.0375 34.4 45.6 34.4H43.2C42.7625 34.4 42.4 34.7625 42.4 35.2C42.4 35.6375 42.7625 36 43.2 36H44.8C45.2375 36 45.6 36.3625 45.6 36.8C45.6 37.2375 45.2375 37.6 44.8 37.6H43.2C42.7625 37.6 42.4 37.9625 42.4 38.4C42.4 38.8375 42.7625 39.2 43.2 39.2H44C44.4375 39.2 44.8 39.5625 44.8 40C44.8 40.4375 44.4375 40.8 44 40.8H34.4C33.5125 40.8 32.8 40.0875 32.8 39.2V32.4625C33.8 31.8375 34.55 30.875 34.925 29.7625C35.6375 27.625 36 25.3875 36 23.1375C36 23.025 36.075 22.9375 36.175 22.9C36.45 22.85 37.1625 22.725 37.8375 24.05C38.2125 24.8125 38.4 25.65 38.3875 26.5125V28.8C38.3875 29.2375 38.75 29.6 39.1875 29.6H45.5875C46.0375 29.6 46.4 29.9625 46.4 30.4ZM40 28V26.5125C40.0125 25.4125 39.7625 24.3125 39.275 23.325C38.4875 21.7875 37.2875 21.075 35.9 21.325C35.025 21.4875 34.4 22.25 34.4 23.1375C34.4 25.2125 34.0625 27.2875 33.4125 29.2625C33.1625 30 32.675 30.625 32.025 31.0625C31.5875 30.65 31 30.425 30.4 30.4125H27.2C25.875 30.4125 24.8 31.4875 24.8 32.8125V36.0125H3.2C2.3125 36.0125 1.6 35.3 1.6 34.4125V8H41.6V28H40ZM3.2 1.6H40C40.8875 1.6 41.6 2.3125 41.6 3.2V6.4H1.6V3.2C1.6 2.3125 2.3125 1.6 3.2 1.6Z" fill="white"/>
<path fill-rule="evenodd" clip-rule="evenodd" d="M4.79922 3.99898C4.79922 4.43648 4.43672 4.79898 3.99922 4.79898C3.56172 4.79898 3.19922 4.43648 3.19922 3.99898C3.19922 3.56148 3.56172 3.19897 3.99922 3.19897C4.43672 3.19897 4.79922 3.56148 4.79922 3.99898Z" fill="white"/>
<path fill-rule="evenodd" clip-rule="evenodd" d="M8.00039 3.99898C8.00039 4.43648 7.63789 4.79898 7.20039 4.79898C6.76289 4.79898 6.40039 4.43648 6.40039 3.99898C6.40039 3.56148 6.76289 3.19897 7.20039 3.19897C7.63789 3.19897 8.00039 3.56148 8.00039 3.99898Z" fill="white"/>
<path fill-rule="evenodd" clip-rule="evenodd" d="M11.1996 3.99898C11.1996 4.43648 10.8371 4.79898 10.3996 4.79898C9.96211 4.79898 9.59961 4.43648 9.59961 3.99898C9.59961 3.56148 9.96211 3.19897 10.3996 3.19897C10.8371 3.19897 11.1996 3.56148 11.1996 3.99898Z" fill="white"/>
<path d="M6.4 24.8005H19.2C20.525 24.8005 21.6 23.7255 21.6 22.4005V12.8005C21.6 11.4755 20.525 10.4005 19.2 10.4005H6.4C5.075 10.4005 4 11.4755 4 12.8005V22.4005C4 23.7255 5.075 24.8005 6.4 24.8005ZM8.3625 23.2005L12.0625 17.3755L13.8375 19.6005L11.5625 23.2005H8.3625ZM19.2 23.2005H13.4625L17.675 16.5755L20 19.488V22.413C20 22.838 19.6375 23.2005 19.2 23.2005ZM5.6 12.8005C5.6 12.363 5.9625 12.0005 6.4 12.0005H19.2C19.6375 12.0005 20 12.363 20 12.8005V16.9255L18.225 14.7005C18.0625 14.5005 17.8125 14.388 17.5625 14.4005C17.3 14.413 17.075 14.5505 16.925 14.7755L14.7625 18.1755L12.625 15.5005C12.4625 15.3005 12.2125 15.188 11.9625 15.2005C11.7 15.213 11.475 15.3505 11.325 15.5755L6.475 23.2005H6.4C5.9625 23.2005 5.6 22.838 5.6 22.4005V12.8005Z" fill="white"/>
<path fill-rule="evenodd" clip-rule="evenodd" d="M8.79922 14.3995C8.79922 14.837 8.43672 15.1995 7.99922 15.1995C7.56172 15.1995 7.19922 14.837 7.19922 14.3995C7.19922 13.962 7.56172 13.5995 7.99922 13.5995C8.43672 13.5995 8.79922 13.962 8.79922 14.3995Z" fill="white"/>
<path fill-rule="evenodd" clip-rule="evenodd" d="M38.4 11.199H24.8C24.3625 11.199 24 11.5615 24 11.999C24 12.4365 24.3625 12.799 24.8 12.799H38.4C38.8375 12.799 39.2 12.4365 39.2 11.999C39.2 11.5615 38.8375 11.199 38.4 11.199Z" fill="white"/>
<path fill-rule="evenodd" clip-rule="evenodd" d="M38.4 14.4005H24.8C24.3625 14.4005 24 14.763 24 15.2005C24 15.638 24.3625 16.0005 24.8 16.0005H38.4C38.8375 16.0005 39.2 15.638 39.2 15.2005C39.2 14.763 38.8375 14.4005 38.4 14.4005Z" fill="white"/>
<path fill-rule="evenodd" clip-rule="evenodd" d="M38.4 17.5995H24.8C24.3625 17.5995 24 17.962 24 18.3995C24 18.837 24.3625 19.1995 24.8 19.1995H38.4C38.8375 19.1995 39.2 18.837 39.2 18.3995C39.2 17.962 38.8375 17.5995 38.4 17.5995Z" fill="white"/>
<path fill-rule="evenodd" clip-rule="evenodd" d="M32 20.801H24.8C24.3625 20.801 24 21.1635 24 21.601C24 22.0385 24.3625 22.401 24.8 22.401H32C32.4375 22.401 32.8 22.0385 32.8 21.601C32.8 21.1635 32.4375 20.801 32 20.801Z" fill="white"/>
<path fill-rule="evenodd" clip-rule="evenodd" d="M23.2 28H4.8C4.3625 28 4 28.3625 4 28.8C4 29.2375 4.3625 29.6 4.8 29.6H23.2C23.6375 29.6 24 29.2375 24 28.8C24 28.3625 23.6375 28 23.2 28Z" fill="white"/>
<path fill-rule="evenodd" clip-rule="evenodd" d="M20.8 31.199H4.8C4.3625 31.199 4 31.5615 4 31.999C4 32.4365 4.3625 32.799 4.8 32.799H20.8C21.2375 32.799 21.6 32.4365 21.6 31.999C21.6 31.5615 21.2375 31.199 20.8 31.199Z" fill="white"/>
</svg>
