<svg style="display: none;" aria-hidden="true" xmlns="http://www.w3.org/2000/svg" xmlns:xlink="http://www.w3.org/1999/xlink"><symbol viewBox="0 0 48 48" fill="none" id="svg-01"><g clip-path="url(#aclip0_1457_20712)" fill="#fff"><path d="M34.8749 14.55C33.5249 15.9 32.1749 17.25 30.7499 18.675C32.3999 20.85 32.9999 23.325 32.3999 26.025C31.8749 28.125 30.6749 29.85 28.8749 31.05C25.3499 33.525 20.6249 33 17.6999 29.85C14.6999 26.625 14.5499 21.9 17.3999 18.525C19.9499 15.45 24.8999 13.95 29.3249 17.175C30.6749 15.825 32.0249 14.475 33.3749 13.05C30.9749 11.025 28.1999 9.825 24.8999 9.6C24.8999 10.5 24.8999 11.325 24.8999 12.225C24.8999 12.975 24.5249 13.425 23.9249 13.425C23.3249 13.425 22.9499 12.975 22.9499 12.225C22.9499 10.275 22.9499 8.4 22.9499 6.45C22.9499 6.225 22.9499 6 22.9499 5.775C21.0749 5.85 19.2749 6.225 17.5499 6.9C11.5499 9.3 7.72488 13.65 6.14988 19.95C6.14988 20.1 6.07488 20.175 6.07488 20.325C5.92488 20.85 5.47488 21.15 4.94988 21.075C4.42488 20.925 4.12488 20.475 4.19988 19.875C4.72488 17.175 5.77488 14.7 7.34988 12.525C11.0999 7.5 15.9749 4.575 22.1999 3.975C22.4249 3.975 22.7249 3.9 23.0249 3.9C23.0249 3.075 23.0249 2.175 23.0249 1.35C23.0249 0.45 23.3249 0 23.9999 0C24.5999 0 24.9749 0.45 24.9749 1.275C24.9749 3.225 24.9749 5.1 24.9749 7.05C24.9749 7.275 24.9749 7.5 24.9749 7.725C28.7249 8.025 32.0249 9.375 34.7999 11.775C35.2499 11.325 35.6249 10.875 36.1499 10.35C35.1749 9.675 34.2749 8.925 33.2249 8.325C31.5749 7.35 29.8499 6.6 27.9749 6.225C27.8249 6.225 27.6749 6.15 27.5999 6.15C27.0749 6 26.7749 5.475 26.9249 4.95C27.0749 4.425 27.5249 4.125 28.1249 4.275C30.5249 4.725 32.6999 5.625 34.7249 6.975C35.6999 7.65 36.5999 8.325 37.7249 9.15C37.7999 8.85 38.0249 8.625 38.0249 8.4C38.0249 7.35 38.0249 6.375 38.0249 5.325C38.0249 4.95 38.1749 4.5 38.4749 4.275C39.6749 3 40.9499 1.725 42.2249 0.45C42.5999 0.075 42.9749 -0.075 43.4249 0.15C43.8749 0.3 44.0249 0.75 44.0249 1.2C44.0249 2.175 44.0249 3.075 44.0249 4.125C44.9999 4.125 45.9749 4.125 46.9499 4.125C47.4749 4.125 47.8499 4.275 48.0749 4.725C48.2249 5.25 48.0749 5.625 47.6999 5.925C46.4249 7.125 45.2249 8.4 44.0249 9.6C43.7249 9.9 43.2749 10.05 42.8999 10.05C41.9249 10.125 40.8749 10.05 39.8999 10.05C39.6749 10.05 39.3749 10.275 39.0749 10.35C40.7249 12.225 41.9249 14.1 42.8249 16.275C43.7249 18.45 44.1749 20.625 44.3249 23.025C45.2249 23.025 46.1249 23.025 46.9499 23.025C47.6999 23.025 48.1499 23.4 48.1499 24C48.1499 24.6 47.6999 24.975 46.9499 24.975C44.9999 24.975 43.0499 24.975 41.0999 24.975C40.8749 24.975 40.6499 24.975 40.5749 24.975C40.1249 26.625 39.8999 28.275 39.2999 29.775C37.3499 34.8 33.7499 38.1 28.5749 39.675C28.4249 39.675 28.3499 39.75 28.1999 39.75C27.5999 39.9 27.1499 39.6 26.9999 39.075C26.8499 38.55 27.1499 38.1 27.7499 37.875C28.1249 37.725 28.4999 37.65 28.7999 37.5C34.4999 35.325 37.7249 31.125 38.3999 25.125C38.3999 25.05 38.3999 25.05 38.3999 24.9C37.5749 24.9 36.6749 24.9 35.8499 24.9C35.0999 24.9 34.6499 24.525 34.6499 23.925C34.6499 23.325 35.0999 22.95 35.8499 22.95C37.7999 22.95 39.6749 22.95 41.6249 22.95C41.8499 22.95 42.0749 22.95 42.2999 22.95C41.9999 18.675 40.4999 14.925 37.7249 11.775C37.2749 12.225 36.8249 12.675 36.3749 13.125C36.4499 13.2 36.5249 13.35 36.6749 13.5C38.0999 15.225 39.1499 17.175 39.7499 19.35C40.0499 20.25 39.8249 20.775 39.2249 21C38.6249 21.15 38.1749 20.775 37.9499 19.95C37.1999 18 36.2249 16.2 34.8749 14.55ZM27.8999 18.675C25.6499 16.8 21.7499 16.65 19.1249 19.35C16.5749 22.05 16.5749 26.025 19.1999 28.65C21.8249 31.275 25.8749 31.35 28.4999 28.8C31.1999 26.25 31.1999 22.35 29.2499 19.95C28.8749 20.325 28.5749 20.625 28.1999 21C27.8999 21.225 27.9749 21.45 28.1249 21.75C28.6499 22.8 28.8749 23.85 28.5749 24.975C27.9749 27.6 25.2749 29.25 22.7249 28.575C20.0999 27.9 18.5249 25.125 19.2749 22.575C20.0999 19.95 22.8749 18.375 25.3499 19.425C26.3999 19.875 26.9999 19.575 27.5249 18.825C27.7499 18.825 27.8249 18.75 27.8999 18.675ZM26.5499 22.725C25.8749 23.4 25.2749 24.075 24.6749 24.675C24.2999 25.05 23.7749 25.05 23.3999 24.675C23.0249 24.3 22.9499 23.85 23.2499 23.4C23.3999 23.25 23.5499 23.1 23.6999 22.95C24.2249 22.425 24.7499 21.9 25.2749 21.375C23.8499 20.775 22.4249 21.225 21.6749 22.35C20.9249 23.475 21.0749 24.975 22.0499 25.95C23.0249 26.925 24.4499 27.075 25.6499 26.325C26.6999 25.575 27.1499 24.15 26.5499 22.725ZM39.8999 8.1C40.7249 8.1 41.4749 8.1 42.2249 8.1C42.3749 8.1 42.5999 8.1 42.6749 8.025C43.2749 7.425 43.9499 6.75 44.6999 6C44.0249 6 43.4999 6 43.0499 6C42.3749 6 41.9999 5.625 41.9999 4.95C41.9999 4.425 41.9999 3.9 41.9999 3.225C41.2499 3.975 40.6499 4.575 40.0499 5.175C39.9749 5.25 39.8999 5.4 39.8999 5.55C39.8249 6.45 39.8999 7.2 39.8999 8.1Z"/><path d="M3.7498 24.975C2.9248 24.975 2.0248 24.975 1.1248 24.975C0.374805 24.975 -0.0751953 24.6 -0.0751953 24C-0.0751953 23.4 0.374805 23.1 1.0498 23.025C3.2248 23.025 5.3248 23.025 7.4998 23.025C7.79981 21.75 7.94981 20.55 8.32481 19.35C8.62481 18.375 9.07481 17.4 9.44981 16.5C9.74981 15.9 10.2748 15.675 10.7998 15.975C11.3248 16.275 11.4748 16.8 11.0998 17.4C10.1998 19.2 9.5998 21.075 9.52481 23.1C10.3498 23.1 11.0998 23.1 11.9248 23.1C12.8248 23.1 13.2748 23.4 13.3498 24.075C13.3498 24.75 12.8998 25.05 11.9248 25.05C10.0498 25.05 8.24981 25.05 6.3748 25.05C6.14981 25.05 5.9248 25.05 5.6998 25.05C5.7748 26.625 5.9998 28.125 6.52481 29.55C8.77481 36.075 13.1998 40.2 19.8748 41.85C20.0998 41.925 20.3998 42 20.6248 42.15C20.9998 42.45 21.1498 42.825 20.9248 43.275C20.6998 43.725 20.3248 43.95 19.7998 43.875C17.4748 43.35 15.2248 42.525 13.1998 41.25C7.79981 37.5 4.6498 32.4 3.8998 25.8C3.8998 25.575 3.8248 25.35 3.8248 25.125C3.8248 25.125 3.8248 25.05 3.7498 24.975Z"/><path d="M24.9748 44.175C24.9748 45.075 24.9748 45.9 24.9748 46.8 24.9748 47.55 24.5998 48 23.9998 48 23.3998 48 23.0248 47.55 23.0248 46.8 23.0248 44.85 23.0248 42.9 23.0248 40.95 23.0248 40.725 23.0248 40.5 23.0248 40.35 22.0498 40.2 21.1498 40.05 20.2498 39.825 14.1748 38.25 10.1998 34.5 8.32481 28.5 8.24981 28.275 8.1748 28.125 8.1748 27.9 8.1748 27.375 8.39981 27.075 8.84981 26.925 9.29981 26.775 9.74981 26.925 9.97481 27.375 10.0498 27.6 10.1248 27.825 10.1998 28.05 11.8498 33.75 17.1748 38.1 23.0248 38.325 23.0248 37.5 23.0248 36.6 23.0248 35.775 23.0248 35.025 23.3998 34.575 23.9248 34.575 24.5248 34.575 24.8998 35.025 24.8998 35.775 24.8998 37.65 24.8998 39.6 24.8998 41.475 24.8998 41.7 24.8998 41.925 24.8998 42.3 26.0998 42.075 27.2998 41.925 28.4248 41.7 30.4498 41.25 32.2498 40.425 33.9748 39.3 34.1248 39.225 34.2748 39.075 34.4248 39 34.8748 38.85 35.2498 38.925 35.5498 39.3 35.8498 39.675 35.7748 40.125 35.4748 40.425 35.3248 40.575 35.0998 40.725 34.8748 40.875 31.9498 42.75 28.7248 43.8 25.2748 44.1 25.2748 44.1 25.1248 44.175 24.9748 44.175zM40.3505 35.3249C39.3755 35.3249 39.0005 34.5749 39.3755 33.7499 40.0505 32.3999 40.7255 30.975 41.3255 29.55 41.5505 28.95 41.7005 28.275 41.8505 27.675 42.0005 27.075 42.4505 26.7749 42.9755 26.8499 43.5005 26.9999 43.8005 27.4499 43.7255 28.1249 43.2755 30.5249 42.3755 32.6999 41.0255 34.7249 40.8005 35.0249 40.5005 35.2499 40.3505 35.3249zM15.3754 12.225C15.1504 12 14.7754 11.775 14.6254 11.4 14.4004 10.95 14.7004 10.575 15.0754 10.275 16.5004 9.37498 18.0754 8.62498 19.7254 8.24998 20.2504 8.09998 20.6254 8.24998 20.8504 8.69998 21.1504 9.22498 20.9254 9.89998 20.3254 10.125 18.7504 10.575 17.3254 11.175 15.9754 12.075 15.9004 12.075 15.7504 12.075 15.3754 12.225zM13.6504 13.65C13.6504 14.175 13.2004 14.55 12.6754 14.55 12.1504 14.55 11.7754 14.1 11.7754 13.575 11.7754 13.05 12.2254 12.675 12.7504 12.675 13.2004 12.675 13.6504 13.125 13.6504 13.65zM38.7 37.35C38.7 37.875 38.25 38.325 37.725 38.325 37.2 38.325 36.75 37.95 36.75 37.425 36.75 36.9 37.125 36.45 37.65 36.45 38.25 36.45 38.7 36.825 38.7 37.35z"/></g><defs><clipPath id="aclip0_1457_20712"><path fill="#fff" d="M0 0H48V48H0z"/></clipPath></defs></symbol><symbol viewBox="0 0 48 43" fill="none" id="svg-02"><path d="M3.2 37.6H24.8V40C24.8 41.325 25.875 42.4 27.2 42.4H30.4C31.1 42.4 31.7625 42.0875 32.2125 41.5625C32.225 41.5625 32.2375 41.5625 32.25 41.55C32.8375 42.1 33.6 42.4 34.4 42.4H44C45.325 42.4 46.4 41.325 46.4 40C46.4 39.5875 46.2875 39.175 46.075 38.825C47.1625 38.15 47.525 36.7375 46.875 35.625C47.475 35.25 47.875 34.625 47.975 33.925C48.075 33.225 47.85 32.5125 47.375 32C48.0125 31.3 48.175 30.2875 47.7875 29.425C47.4 28.5625 46.5375 28 45.5875 28H43.1875V3.2C43.1875 1.4375 41.75 0 39.9875 0H3.2C1.4375 0 0 1.4375 0 3.2V34.4C0 36.1625 1.4375 37.6 3.2 37.6ZM30.4 40.8H27.2C26.7625 40.8 26.4 40.4375 26.4 40V32.8C26.4 32.3625 26.7625 32 27.2 32H30.4C30.8375 32 31.2 32.3625 31.2 32.8V40C31.2 40.4375 30.8375 40.8 30.4 40.8ZM46.4 30.4C46.4 30.8375 46.0375 31.2 45.6 31.2H43.2C42.7625 31.2 42.4 31.5625 42.4 32C42.4 32.4375 42.7625 32.8 43.2 32.8H45.6C46.0375 32.8 46.4 33.1625 46.4 33.6C46.4 34.0375 46.0375 34.4 45.6 34.4H43.2C42.7625 34.4 42.4 34.7625 42.4 35.2C42.4 35.6375 42.7625 36 43.2 36H44.8C45.2375 36 45.6 36.3625 45.6 36.8C45.6 37.2375 45.2375 37.6 44.8 37.6H43.2C42.7625 37.6 42.4 37.9625 42.4 38.4C42.4 38.8375 42.7625 39.2 43.2 39.2H44C44.4375 39.2 44.8 39.5625 44.8 40C44.8 40.4375 44.4375 40.8 44 40.8H34.4C33.5125 40.8 32.8 40.0875 32.8 39.2V32.4625C33.8 31.8375 34.55 30.875 34.925 29.7625C35.6375 27.625 36 25.3875 36 23.1375C36 23.025 36.075 22.9375 36.175 22.9C36.45 22.85 37.1625 22.725 37.8375 24.05C38.2125 24.8125 38.4 25.65 38.3875 26.5125V28.8C38.3875 29.2375 38.75 29.6 39.1875 29.6H45.5875C46.0375 29.6 46.4 29.9625 46.4 30.4ZM40 28V26.5125C40.0125 25.4125 39.7625 24.3125 39.275 23.325C38.4875 21.7875 37.2875 21.075 35.9 21.325C35.025 21.4875 34.4 22.25 34.4 23.1375C34.4 25.2125 34.0625 27.2875 33.4125 29.2625C33.1625 30 32.675 30.625 32.025 31.0625C31.5875 30.65 31 30.425 30.4 30.4125H27.2C25.875 30.4125 24.8 31.4875 24.8 32.8125V36.0125H3.2C2.3125 36.0125 1.6 35.3 1.6 34.4125V8H41.6V28H40ZM3.2 1.6H40C40.8875 1.6 41.6 2.3125 41.6 3.2V6.4H1.6V3.2C1.6 2.3125 2.3125 1.6 3.2 1.6Z" fill="#fff"/><path fill-rule="evenodd" clip-rule="evenodd" d="M4.79922 3.99898C4.79922 4.43648 4.43672 4.79898 3.99922 4.79898 3.56172 4.79898 3.19922 4.43648 3.19922 3.99898 3.19922 3.56148 3.56172 3.19897 3.99922 3.19897 4.43672 3.19897 4.79922 3.56148 4.79922 3.99898zM8.00039 3.99898C8.00039 4.43648 7.63789 4.79898 7.20039 4.79898 6.76289 4.79898 6.40039 4.43648 6.40039 3.99898 6.40039 3.56148 6.76289 3.19897 7.20039 3.19897 7.63789 3.19897 8.00039 3.56148 8.00039 3.99898zM11.1996 3.99898C11.1996 4.43648 10.8371 4.79898 10.3996 4.79898 9.96211 4.79898 9.59961 4.43648 9.59961 3.99898 9.59961 3.56148 9.96211 3.19897 10.3996 3.19897 10.8371 3.19897 11.1996 3.56148 11.1996 3.99898z" fill="#fff"/><path d="M6.4 24.8005H19.2C20.525 24.8005 21.6 23.7255 21.6 22.4005V12.8005C21.6 11.4755 20.525 10.4005 19.2 10.4005H6.4C5.075 10.4005 4 11.4755 4 12.8005V22.4005C4 23.7255 5.075 24.8005 6.4 24.8005ZM8.3625 23.2005L12.0625 17.3755L13.8375 19.6005L11.5625 23.2005H8.3625ZM19.2 23.2005H13.4625L17.675 16.5755L20 19.488V22.413C20 22.838 19.6375 23.2005 19.2 23.2005ZM5.6 12.8005C5.6 12.363 5.9625 12.0005 6.4 12.0005H19.2C19.6375 12.0005 20 12.363 20 12.8005V16.9255L18.225 14.7005C18.0625 14.5005 17.8125 14.388 17.5625 14.4005C17.3 14.413 17.075 14.5505 16.925 14.7755L14.7625 18.1755L12.625 15.5005C12.4625 15.3005 12.2125 15.188 11.9625 15.2005C11.7 15.213 11.475 15.3505 11.325 15.5755L6.475 23.2005H6.4C5.9625 23.2005 5.6 22.838 5.6 22.4005V12.8005Z" fill="#fff"/><path fill-rule="evenodd" clip-rule="evenodd" d="M8.79922 14.3995C8.79922 14.837 8.43672 15.1995 7.99922 15.1995 7.56172 15.1995 7.19922 14.837 7.19922 14.3995 7.19922 13.962 7.56172 13.5995 7.99922 13.5995 8.43672 13.5995 8.79922 13.962 8.79922 14.3995zM38.4 11.199H24.8C24.3625 11.199 24 11.5615 24 11.999 24 12.4365 24.3625 12.799 24.8 12.799H38.4C38.8375 12.799 39.2 12.4365 39.2 11.999 39.2 11.5615 38.8375 11.199 38.4 11.199zM38.4 14.4005H24.8C24.3625 14.4005 24 14.763 24 15.2005 24 15.638 24.3625 16.0005 24.8 16.0005H38.4C38.8375 16.0005 39.2 15.638 39.2 15.2005 39.2 14.763 38.8375 14.4005 38.4 14.4005zM38.4 17.5995H24.8C24.3625 17.5995 24 17.962 24 18.3995 24 18.837 24.3625 19.1995 24.8 19.1995H38.4C38.8375 19.1995 39.2 18.837 39.2 18.3995 39.2 17.962 38.8375 17.5995 38.4 17.5995zM32 20.801H24.8C24.3625 20.801 24 21.1635 24 21.601 24 22.0385 24.3625 22.401 24.8 22.401H32C32.4375 22.401 32.8 22.0385 32.8 21.601 32.8 21.1635 32.4375 20.801 32 20.801zM23.2 28H4.8C4.3625 28 4 28.3625 4 28.8 4 29.2375 4.3625 29.6 4.8 29.6H23.2C23.6375 29.6 24 29.2375 24 28.8 24 28.3625 23.6375 28 23.2 28zM20.8 31.199H4.8C4.3625 31.199 4 31.5615 4 31.999 4 32.4365 4.3625 32.799 4.8 32.799H20.8C21.2375 32.799 21.6 32.4365 21.6 31.999 21.6 31.5615 21.2375 31.199 20.8 31.199z" fill="#fff"/></symbol><symbol viewBox="0 0 43 48" fill="none" id="svg-03"><path d="M10.3441 47.1533C9.47401 46.7666 9.08732 46.1866 9.18399 45.2199C9.18399 44.7365 9.18399 44.1564 9.18399 43.6731C8.99065 43.6731 8.7973 43.6731 8.60395 43.6731C6.28378 43.6731 4.06029 43.6731 1.74012 43.6731C0.580042 43.6731 0 43.093 0 41.933C0 41.4496 0 40.9662 0 40.4828C0 39.9995 0.290021 39.7095 0.676715 39.7095C1.06341 39.7095 1.35343 39.9995 1.35343 40.4828C1.35343 40.9662 1.35343 41.4496 1.35343 41.933C1.35343 42.1263 1.4501 42.223 1.64345 42.223C4.15696 42.223 6.5738 42.223 9.18399 42.223C9.18399 40.6762 9.18399 39.2261 9.18399 37.776C7.34719 36.6159 6.76715 35.8425 6.47713 33.7157C5.31705 33.7157 4.15696 33.619 3.09356 33.7157C2.12682 33.8124 1.4501 34.8758 1.35343 35.9392C1.35343 36.4226 1.35343 36.8093 1.35343 37.2926C1.35343 37.776 1.06341 38.066 0.676715 38.066C0.290021 38.066 0 37.776 0 37.2926C0 36.8093 0 36.2292 0 35.7458C0.0966736 34.5858 0.676715 33.619 1.64345 32.9423C1.74012 32.8456 1.8368 32.8456 1.93347 32.749C1.54678 31.4922 1.06341 30.3321 0.773389 29.172C-0.773389 22.9849 0.193347 17.2812 3.77027 11.9641C3.96362 11.6741 4.06029 11.4808 3.86694 11.0941C3.38358 10.1273 3.57692 8.96726 4.35031 8.19387C5.1237 7.42048 6.18711 7.13046 7.25052 7.61383C7.44387 7.80717 7.63722 7.7105 7.83056 7.51715C8.99065 6.74376 10.0541 5.97037 11.2141 5.19699C11.6975 4.90696 12.0842 5.00364 12.2775 5.39033C12.4709 5.77703 12.2775 6.06705 11.8909 6.35707C10.8274 7.13046 9.76403 7.80717 8.70062 8.58056C8.50728 8.67724 8.50728 8.87058 8.60395 9.06393C8.99064 10.0307 8.7973 10.9974 8.12058 11.6741C7.44387 12.4475 6.5738 12.7375 5.5104 12.4475C5.22037 12.3508 5.1237 12.4475 4.93035 12.6409C2.99688 15.4444 1.8368 18.5379 1.54678 22.0182C1.16008 25.4984 1.74012 28.7853 3.09356 31.9756C3.19023 32.2656 3.38358 32.3623 3.77027 32.3623C5.1237 32.3623 6.47713 32.3623 7.73389 32.3623C7.83056 31.9756 7.73389 31.7822 7.54054 31.5889C6.38046 30.6221 5.60707 29.4621 5.41372 28.012C5.41372 27.7219 5.31705 27.6253 5.02703 27.5286C3.2869 27.0452 2.70686 24.9184 3.96362 23.565C4.06029 23.4683 4.15697 23.1783 4.15697 22.9849C4.15697 21.5348 4.15697 20.1814 4.15697 18.7313C4.15697 16.6045 5.5104 15.0577 7.44387 14.671C7.73389 14.5743 8.12058 14.5743 8.4106 14.5743C9.86071 14.5743 11.3108 14.5743 12.7609 14.5743C13.7277 14.5743 14.6944 14.8643 15.4678 15.5411C15.5645 15.6377 15.7578 15.6377 15.8545 15.6377C16.7245 15.251 17.5946 15.1544 18.5613 15.1544C19.0447 15.1544 19.4314 15.1544 19.9148 15.1544C20.3015 15.1544 20.5915 15.4444 20.6882 15.8311C20.6882 16.2178 20.3981 16.5078 19.9148 16.5078C19.238 16.5078 18.5613 16.5078 17.8846 16.5078C16.1445 16.5078 14.6944 17.8612 14.5977 19.6014C14.501 21.0515 14.5977 22.5016 14.5977 23.9517C14.5977 24.0483 14.5977 24.0483 14.5977 24.145C14.9844 24.2417 14.9844 24.0483 15.0811 23.7583C15.2744 22.6949 15.6611 21.7282 16.2412 20.8581C16.6279 20.3747 16.8212 20.2781 17.4012 20.4714C19.238 21.0515 20.9782 21.5348 22.9116 21.7282C23.395 21.7282 23.9751 21.7282 24.4584 21.6315C24.7484 21.5348 25.1351 21.3415 25.3285 21.1481C25.7152 20.7614 26.1985 20.7614 26.4886 21.2448C26.9719 22.0182 27.3586 22.8883 27.4553 23.7583C27.4553 23.9517 27.552 24.2417 27.842 24.145C27.842 24.0483 27.842 23.9517 27.842 23.855C27.842 22.8883 27.842 21.9215 27.842 20.9548C27.842 20.4714 27.7453 20.1814 27.1653 20.1814C26.7786 20.0847 26.5852 19.7947 26.5852 19.408C26.5852 18.6346 26.2952 18.0546 25.8119 17.4745C25.2318 16.7978 24.4584 16.5078 23.685 16.5078C23.395 16.5078 23.105 16.5078 22.9116 16.5078C22.525 16.5078 22.2349 16.2178 22.2349 15.8311C22.2349 15.4444 22.525 15.1544 22.9116 15.1544C23.9751 15.0577 25.0385 15.251 25.9085 15.7344C26.8753 14.7677 28.0353 14.4777 29.2921 14.5743C30.7422 14.5743 32.0956 14.5743 33.5457 14.5743C35.3825 14.5743 36.8326 15.7344 37.316 17.4745C37.316 17.5712 37.4127 17.7646 37.606 17.8612C38.1861 18.2479 38.4761 18.828 38.4761 19.5047C38.4761 20.5681 38.4761 21.7282 38.4761 22.7916C38.4761 22.9849 38.5728 23.2749 38.7661 23.3716C40.0229 24.7251 39.4428 26.7552 37.7027 27.3352C37.4127 27.4319 37.4127 27.5286 37.316 27.7219C37.026 29.172 36.3493 30.4288 35.1892 31.3955C34.9958 31.4922 34.9958 31.7822 34.8025 31.9756L34.8992 32.0722C35.5759 32.0722 36.1559 32.0722 36.8326 32.0722C37.5094 32.0722 38.2827 32.0722 38.9595 32.0722C39.3462 32.0722 39.4428 31.9756 39.6362 31.6856C40.9896 28.4953 41.473 25.2084 41.183 21.8248C40.8929 18.4413 39.7329 15.3477 37.8961 12.5442C37.7027 12.2542 37.5094 12.1575 37.2193 12.2542C36.2526 12.5442 35.3825 12.2542 34.7058 11.4808C34.0291 10.7074 33.8358 9.83732 34.2225 8.87058C34.1258 8.87058 34.0291 8.67724 33.8358 8.48389C31.0322 6.2604 27.842 4.81029 24.2651 4.23025C23.8784 4.13358 23.685 4.23025 23.4917 4.61694C22.5249 6.35707 20.0114 6.2604 19.0447 4.61694C18.8514 4.32692 18.658 4.23025 18.368 4.32692C17.2079 4.61694 16.0478 4.90696 14.8877 5.19699C14.6944 5.29366 14.3077 5.29366 14.1143 5.19699C13.921 5.10031 13.7277 4.81029 13.8243 4.61694C13.921 4.4236 14.1143 4.0369 14.3077 4.0369C15.4678 3.65021 16.5312 3.45686 17.6913 3.16684C17.7879 3.16684 17.7879 3.16684 17.8846 3.16684C18.4647 3.16684 18.7547 2.97349 18.948 2.39345C19.4314 1.23337 20.3015 0.75 21.4615 0.75C22.525 0.846674 23.395 1.33004 23.7817 2.39345C23.9751 2.78015 24.1684 2.87682 24.5551 2.97349C28.422 3.55353 31.8056 5.00364 34.8025 7.51715C35.0925 7.7105 35.2859 7.80717 35.6726 7.61383C36.6393 7.22713 37.7994 7.51715 38.4761 8.29054C39.1528 9.06393 39.3462 10.224 38.8628 11.1907C38.7661 11.3841 38.6694 11.5774 38.8628 11.8675C43.2131 18.3446 43.7931 25.2084 40.8929 32.4589C40.8929 32.5556 40.7963 32.6523 40.7963 32.749C40.9896 32.8456 41.0863 32.9423 41.2796 33.1357C42.2464 33.909 42.7297 34.8758 42.7297 36.1325C42.7297 38.066 42.7297 40.0962 42.7297 42.0296C42.7297 43.1897 42.1497 43.7698 40.9896 43.7698C38.6694 43.7698 36.4459 43.7698 34.1258 43.7698C33.9324 43.7698 33.7391 43.7698 33.5457 43.7698C33.5457 44.3498 33.5457 44.8332 33.5457 45.3165C33.6424 46.2833 33.2557 46.8633 32.3857 47.25C24.9418 47.1533 17.6913 47.1533 10.3441 47.1533ZM26.1985 36.1325C25.9085 39.2261 23.5884 40.8695 21.3649 40.8695C20.2048 40.8695 19.238 40.5795 18.368 39.8061C17.1112 38.8394 16.5312 37.5826 16.4345 36.0359C15.3711 36.0359 14.4044 36.0359 13.341 36.0359C11.6008 36.0359 10.5374 37.0993 10.5374 38.8394C10.5374 40.9662 10.5374 43.093 10.5374 45.2199C10.5374 45.6066 10.6341 45.7999 11.1175 45.7999C15.0811 45.7999 19.0447 45.7999 23.0083 45.7999C25.9085 45.7999 28.8087 45.7999 31.7089 45.7999C31.9023 45.7999 32.1923 45.8966 32.1923 45.5099C32.1923 43.1897 32.1923 40.9662 32.1923 38.6461C32.1923 37.3893 31.1289 36.2292 29.9688 36.2292C28.6154 36.0359 27.4553 36.1325 26.1985 36.1325ZM25.9085 22.8883C22.815 23.9517 20.1081 22.7916 17.3046 22.1149C17.2079 22.2115 17.1112 22.3082 17.1112 22.5016C16.6279 23.1783 16.4345 23.9517 16.4345 24.7251C16.4345 26.3685 16.3378 28.012 16.5312 29.5587C16.8212 32.0722 19.1414 33.909 21.6549 33.7157C24.1684 33.5224 26.1985 31.4922 26.1985 28.9787C26.1985 27.5286 26.1985 26.0785 26.1985 24.6284C26.1985 24.0483 26.0052 23.4683 25.9085 22.8883ZM7.05717 21.4382C6.9605 22.0182 6.76715 22.5016 6.67048 22.9849C6.5738 24.435 6.5738 25.9818 6.67048 27.4319C6.86383 30.0421 9.18399 31.7822 11.6975 31.3955C12.9543 31.2022 14.0177 30.4288 14.6944 29.3654C14.5977 29.3654 14.501 29.2687 14.501 29.2687C12.8576 28.592 12.2775 27.0452 13.1476 25.4984C13.1476 25.4018 13.2443 25.4018 13.2443 25.3051C13.2443 24.3384 13.2443 23.4683 13.2443 22.5016C11.1175 22.5016 9.18399 22.0182 7.05717 21.4382ZM41.183 42.3196C41.183 40.0962 41.183 37.9693 41.183 35.8425C41.183 34.8758 40.4096 33.909 39.4428 33.8124C38.2827 33.7157 37.2193 33.8124 36.0593 33.8124C35.7692 35.9392 35.1892 36.8093 33.3524 37.8727C33.3524 39.4194 33.3524 40.8695 33.3524 42.3196C36.0593 42.3196 38.5728 42.3196 41.183 42.3196ZM27.9387 29.2687C27.9387 29.3654 28.0353 29.4621 28.0353 29.4621C29.0021 30.9122 30.9356 31.6856 32.579 31.2989C34.4158 30.8155 35.7692 29.3654 35.8659 27.5286C35.9626 26.1752 35.9626 24.7251 35.8659 23.3716C35.8659 22.8883 35.6726 22.3082 35.6726 21.8248C33.4491 22.8883 31.4189 22.2115 29.2921 21.8248C29.2921 22.7916 29.2921 23.7583 29.2921 24.7251C29.2921 25.0151 29.3888 25.2084 29.4854 25.4018C30.1622 26.7552 29.6788 28.3987 28.2287 28.9787C28.132 29.172 28.0353 29.2687 27.9387 29.2687ZM27.0686 16.7011C27.3586 17.3779 27.6486 18.0546 27.9387 18.7313C28.0353 19.0213 28.132 19.118 28.3254 19.3113C28.6154 19.6014 28.9054 19.8914 29.1954 20.2781C29.2921 20.3747 29.4854 20.5681 29.5821 20.6648C30.2588 20.8581 30.8389 21.0515 31.5156 21.0515C32.4823 21.1481 33.3524 21.1481 34.3191 21.0515C34.6091 21.0515 34.8025 20.6648 34.9958 20.4714C35.1892 20.2781 35.3825 19.988 35.5759 19.988C35.7692 19.988 36.0593 20.1814 36.2526 20.3747C36.5426 20.7614 36.736 21.1481 36.9293 21.6315C36.9293 20.8581 36.9293 20.1814 36.9293 19.6014C36.9293 19.5047 36.736 19.3113 36.6393 19.2147C36.1559 19.118 35.9626 18.828 35.9626 18.3446C35.8659 17.0878 34.8992 16.1211 33.6424 16.1211C31.999 16.1211 30.3555 16.1211 28.7121 16.1211C28.0353 16.0244 27.4553 16.3145 27.0686 16.7011ZM5.60707 21.4382C5.80042 21.1481 5.99376 20.8581 6.09044 20.5681C6.47713 19.988 6.67048 19.8914 7.34719 20.0847C8.31393 20.3747 9.28067 20.5681 10.2474 20.8581C11.2141 21.0515 12.2775 21.2448 13.341 21.0515C13.2443 19.408 13.4376 17.8612 14.5977 16.7011C14.1143 16.3145 13.631 16.1211 13.0509 16.1211C11.4075 16.1211 9.86071 16.1211 8.21726 16.1211C6.76715 16.1211 5.70374 17.0878 5.60707 18.5379C5.5104 19.408 5.60707 20.4714 5.60707 21.4382ZM23.2983 34.7791C21.7516 35.1658 21.2682 35.2625 19.238 34.7791C19.5281 35.9392 18.8514 36.2292 17.8846 36.0359C17.9813 37.9693 19.5281 39.5161 21.4615 39.5161C23.395 39.4194 24.9418 37.8727 24.8451 36.1325C24.4584 36.0359 23.9751 36.0359 23.7817 35.8425C23.395 35.6492 23.395 35.1658 23.2983 34.7791ZM9.66736 36.5192C10.1507 36.0359 10.6341 35.6492 11.1175 35.2625C11.8909 34.7791 12.6642 34.6824 13.631 34.6824C13.8243 34.6824 14.0177 34.5858 14.0177 34.4891C14.1143 34.2957 14.1143 34.0057 14.211 33.619C13.341 33.7157 12.7609 33.5224 12.8576 32.4589C11.6008 32.8456 10.4407 32.8456 9.28067 32.5556C9.18399 32.9423 9.08732 33.329 8.89397 33.5224C8.70062 33.7157 8.21726 33.7157 7.92724 33.8124C7.83056 34.8758 8.60395 36.0359 9.66736 36.5192ZM29.7755 32.5556C29.5821 33.5224 29.5821 33.5224 28.5187 33.7157C28.422 34.5858 28.5187 34.6824 29.3888 34.6824C30.4522 34.6824 31.4189 34.9725 32.1923 35.7458C32.4823 35.9392 32.6757 36.2292 32.9657 36.5192C34.1258 36.0359 34.9958 34.6824 34.8025 33.7157C33.7391 33.619 33.6424 33.7157 33.5457 32.5556C32.1923 32.9423 31.0322 32.8456 29.7755 32.5556ZM6.18711 11.2874C6.86383 11.2874 7.44387 10.7074 7.44387 10.0307C7.44387 9.35395 6.86383 8.77391 6.28378 8.77391C5.60707 8.77391 5.02703 9.25728 5.02703 9.93399C4.93035 10.7074 5.5104 11.2874 6.18711 11.2874ZM21.2682 4.52027C21.9449 4.52027 22.5249 3.94023 22.5249 3.26351C22.5249 2.5868 21.9449 2.10343 21.2682 2.00676C20.5915 2.00676 20.0114 2.5868 20.0114 3.26351C20.1081 4.0369 20.5915 4.52027 21.2682 4.52027ZM36.4459 11.2874C37.1227 11.2874 37.7027 10.7074 37.7027 10.0307C37.7027 9.35395 37.2193 8.87058 36.5426 8.77391C35.8659 8.77391 35.2859 9.25728 35.2859 9.93399C35.1892 10.7074 35.7692 11.2874 36.4459 11.2874ZM17.7879 34.6824C17.8846 34.1024 17.6913 33.7157 17.3046 33.7157C16.7245 33.619 16.1445 33.7157 15.4678 33.7157C15.4678 34.1024 15.3711 34.3924 15.3711 34.6824C16.2412 34.6824 17.0146 34.6824 17.7879 34.6824ZM27.0686 33.7157C26.5852 33.7157 26.1019 33.7157 25.6185 33.7157C24.9418 33.7157 24.6518 34.0057 24.8451 34.6824C25.6185 34.6824 26.3919 34.6824 27.262 34.6824C27.1653 34.2957 27.1653 34.0057 27.0686 33.7157ZM28.422 32.2656C28.422 31.3955 27.552 31.2989 27.262 30.7188C26.9719 31.2989 26.7786 31.6856 26.4886 32.2656C27.1653 32.2656 27.7453 32.2656 28.422 32.2656ZM16.0478 32.2656C15.7578 31.7822 15.5645 31.2989 15.2744 30.8155C14.9844 31.1055 14.7911 31.2989 14.501 31.4922C14.211 31.6856 13.921 31.8789 14.1143 32.2656C14.8877 32.2656 15.4678 32.2656 16.0478 32.2656ZM14.9844 27.9153C14.9844 27.1419 14.9844 26.4652 14.9844 25.6918C14.4044 25.7885 14.1143 26.1752 14.1143 26.6585C14.1143 27.2386 14.4044 27.7219 14.9844 27.9153ZM27.552 25.6918C27.552 26.4652 27.552 27.1419 27.552 27.9153C28.132 27.8186 28.422 27.3352 28.422 26.8519C28.5187 26.2718 28.132 25.8851 27.552 25.6918ZM5.31705 24.3384C4.83368 24.5317 4.64033 24.9184 4.64033 25.3051C4.64033 25.6918 4.83368 25.9818 5.31705 26.1752C5.31705 25.5951 5.31705 25.0151 5.31705 24.3384ZM37.316 26.1752C37.7994 25.9818 37.9927 25.6918 37.9927 25.2084C37.9927 24.8217 37.7994 24.5317 37.316 24.3384C37.316 25.0151 37.316 25.5951 37.316 26.1752Z" fill="#fff"/></symbol><symbol viewBox="0 0 44 48" fill="none" id="svg-04"><path d="M21.4629 47.9315C20.5727 47.7261 19.751 47.4522 19.2032 46.699C18.8609 46.2197 18.587 45.6034 18.3131 45.0556C18.1761 44.7817 18.1077 44.6448 17.8338 44.5763C16.0535 44.234 14.2731 43.6177 12.6298 42.796C10.0278 41.495 7.76815 39.7147 5.91936 37.4551C5.71394 37.1812 5.50852 37.1812 5.23463 37.2496C3.52279 37.8659 1.674 37.1127 0.783842 35.5378C-0.106315 33.8944 0.236053 31.9087 1.74247 30.8131C2.01637 30.6077 2.08484 30.4023 1.94789 30.0599C0.715368 26.02 0.715368 21.9116 1.94789 17.8716C2.01637 17.5977 2.01637 17.3923 1.74247 17.1869C0.236053 16.0913 -0.174789 14.1056 0.715368 12.4622C1.60553 10.8188 3.45431 10.1341 5.23463 10.7504C5.57699 10.8873 5.71394 10.7504 5.91936 10.5449C7.76815 8.28531 10.0278 6.50499 12.6298 5.20399C14.2047 4.38231 15.9165 3.83452 17.6283 3.49215C18.0392 3.42368 18.3131 3.28673 18.45 2.73894C18.7239 1.09558 20.2988 0 22.0107 0C23.7225 0 25.2289 1.23252 25.5713 2.87589C25.6398 3.28673 25.8452 3.42368 26.1876 3.49215C28.995 4.03994 31.5285 5.13552 33.8566 6.77889C35.4315 7.87447 36.801 9.10699 37.965 10.5449C38.1704 10.8188 38.3759 10.8873 38.7182 10.7504C40.3616 10.1341 42.2789 10.8873 43.169 12.3937C44.0592 14.0371 43.7168 16.0228 42.2789 17.1184C42.005 17.3238 41.9365 17.5292 42.005 17.8716C43.2375 21.9116 43.2375 26.02 42.005 30.0599C41.9365 30.3338 41.9365 30.5392 42.2104 30.7447C43.5798 31.7718 44.0592 33.689 43.3744 35.2639C42.6212 36.9073 40.8409 37.8659 39.1975 37.3866C38.4443 37.1812 38.102 37.3866 37.6226 37.9344C34.6098 41.3581 30.7753 43.5492 26.3245 44.5078C25.9137 44.5763 25.6398 44.7817 25.5713 45.2611C25.1604 46.699 24.2018 47.5207 22.8323 47.9315C22.6954 47.9315 22.6269 48 22.49 48C22.0791 47.9315 21.8052 47.9315 21.4629 47.9315ZM21.9422 13.4893C16.1904 13.4893 11.4657 18.214 11.4657 23.9658C11.4657 29.7175 16.1904 34.4422 21.9422 34.4422C27.694 34.4422 32.4186 29.7175 32.4186 23.9658C32.4186 18.214 27.694 13.4893 21.9422 13.4893ZM18.3816 4.86163C13.6569 5.75178 9.82236 8.07989 6.80952 11.7775C7.6312 12.8046 7.9051 13.9001 7.6312 15.1327C7.6312 15.2696 7.76815 15.4066 7.83662 15.475C8.72678 15.9544 9.61694 16.4337 10.5071 16.913C10.9179 17.1184 11.3288 17.3923 11.7396 17.5977C14.2047 13.9686 17.5599 11.9829 21.9422 11.9829C26.3245 11.9829 29.6112 14.0371 32.0763 17.5977C33.2403 16.9815 34.3359 16.3652 35.4315 15.7489C35.9793 15.475 36.3216 15.2011 36.1847 14.4479C35.9793 13.4208 36.3901 12.5307 37.0749 11.709C34.062 8.01141 30.2275 5.68331 25.5028 4.79315C25.0235 6.2311 24.0649 7.05278 22.6269 7.39515C22.6269 8.42225 22.6269 9.44936 22.6269 10.408C22.1476 10.408 21.6683 10.408 21.1205 10.408C21.1205 9.38089 21.1205 8.35378 21.1205 7.39515C19.8195 7.05278 18.8609 6.2311 18.3816 4.86163ZM6.80952 36.1541C9.89083 39.8516 13.6569 42.1797 18.3816 43.0699C18.8609 41.7004 19.8195 40.8103 21.2575 40.4679C21.2575 39.4408 21.2575 38.4137 21.2575 37.4551C21.8052 37.4551 22.2161 37.4551 22.7639 37.4551C22.7639 38.4822 22.7639 39.5093 22.7639 40.4679C24.2018 40.8103 25.092 41.7004 25.5713 43.0699C30.296 42.1113 34.1305 39.8516 37.1433 36.1541C36.2532 34.7846 36.1847 34.3738 36.3216 32.7989C36.3216 32.6619 36.2532 32.525 36.1847 32.4565C34.8837 31.7033 33.5142 31.0185 32.1448 30.2653C29.6797 33.8944 26.3245 35.8802 21.9422 35.8802C17.5599 35.8802 14.2047 33.826 11.7396 30.2653C10.3701 31.0185 9.06915 31.7033 7.76815 32.4565C7.69968 32.525 7.56273 32.6619 7.6312 32.7989C7.9051 34.0999 7.56273 35.1954 6.80952 36.1541ZM11.0549 28.9643C9.61694 25.6091 9.61694 22.2539 11.0549 18.8987C9.61694 18.1455 8.24747 17.3238 6.80952 16.5706C5.85089 17.5977 4.75531 18.0086 3.38584 17.8716C2.15331 21.9116 2.15331 25.883 3.38584 29.923C4.75531 29.786 5.85089 30.2653 6.80952 31.224C8.24747 30.5392 9.61694 29.786 11.0549 28.9643ZM37.0749 31.2924C37.965 30.4023 38.9921 29.8545 40.2931 29.923C40.3616 29.923 40.567 29.7175 40.6355 29.6491C41.3202 27.4579 41.5941 25.2668 41.4572 22.9387C41.3887 21.2268 41.1148 19.5835 40.4985 17.9401C39.1975 18.077 38.102 17.6662 37.2118 16.776C37.1433 16.7076 36.9379 16.7076 36.801 16.776C36.1847 17.1184 35.5684 17.4608 35.0206 17.7347C34.3359 18.1455 33.5827 18.4879 32.898 18.8987C34.3359 22.2539 34.3359 25.6091 32.898 28.9643C34.2674 29.786 35.6369 30.5392 37.0749 31.2924ZM21.9422 5.9572C23.1747 5.9572 24.2018 4.9301 24.2018 3.76605C24.2018 2.53352 23.2432 1.50642 22.0107 1.50642C20.7781 1.50642 19.751 2.53352 19.751 3.76605C19.6826 4.9301 20.7097 5.9572 21.9422 5.9572ZM6.19326 14.2425C6.19326 13.01 5.16615 11.9829 3.93363 11.9829C2.7011 11.9829 1.674 13.01 1.674 14.2425C1.674 15.475 2.7011 16.4337 3.93363 16.4337C5.23463 16.4337 6.19326 15.4066 6.19326 14.2425ZM42.1419 14.2425C42.1419 13.01 41.1148 11.9829 39.9507 11.9829C38.7182 11.9829 37.6911 12.9415 37.6911 14.174C37.6911 15.4066 38.7182 16.4337 39.9507 16.4337C41.1148 16.5021 42.1419 15.475 42.1419 14.2425ZM6.19326 33.689C6.19326 32.4565 5.16615 31.4294 3.93363 31.4294C2.7011 31.4294 1.674 32.4565 1.674 33.689C1.674 34.9215 2.7011 35.9486 3.93363 35.9486C5.23463 35.9486 6.19326 34.9215 6.19326 33.689ZM42.1419 33.689C42.1419 32.4565 41.1148 31.4294 39.9507 31.4294C38.7182 31.4294 37.6911 32.388 37.6911 33.6205C37.6911 34.8531 38.7182 35.8802 39.9507 35.8802C41.1148 35.9486 42.1419 34.9215 42.1419 33.689ZM21.9422 41.9743C20.7097 41.9743 19.6826 43.0014 19.6826 44.1655C19.6826 45.398 20.7097 46.4251 21.9422 46.4251C23.1747 46.4251 24.2018 45.398 24.2018 44.1655C24.2018 42.933 23.1747 41.9743 21.9422 41.9743Z" fill="#fff"/><path d="M19.545 23.0748C18.1071 21.7738 17.9017 20.1989 18.3125 18.487 18.7233 16.7067 20.5037 15.5427 22.2155 15.6796 24.2012 15.885 25.5022 17.3915 25.6392 19.3772 25.7077 20.7467 25.4338 21.9792 24.2697 23.0063 24.4751 23.1432 24.6806 23.3487 24.886 23.4856 25.9816 24.1703 27.1456 24.8551 28.2412 25.4713 28.5151 25.6083 28.652 25.8137 28.5835 26.1561 28.5835 26.8408 28.5835 27.5255 28.5835 28.1418 28.652 29.032 28.1727 29.6482 27.4195 29.9221 26.6663 30.196 25.8446 30.4014 25.0914 30.4699 22.6263 30.6753 20.0928 30.7438 17.6278 30.333 17.2169 30.2645 16.8061 30.1275 16.3952 29.9906 15.5736 29.6482 15.0942 29.032 15.1627 28.1418 15.1627 27.4571 15.1627 26.7723 15.1627 26.0876 15.1627 25.8137 15.2312 25.6768 15.4366 25.5398 16.6007 24.8551 17.6962 24.1703 18.8603 23.4856 19.1342 23.4171 19.3396 23.2802 19.545 23.0748zM21.5308 29.2374C22.9002 29.1689 23.8589 29.1689 24.8175 29.1004 25.4338 29.032 26.1185 28.895 26.7348 28.7581 27.0771 28.6896 27.1456 28.4842 27.1456 28.1418 27.351 27.0462 26.9402 26.293 25.8446 25.8822 25.7077 25.8137 25.5707 25.7452 25.5022 25.6768 24.6806 25.129 23.8589 24.5127 23.0372 23.9649 22.9687 23.8964 22.7633 23.8965 22.6263 23.8965 22.0786 23.8965 21.5992 23.8965 21.0515 23.8965 20.9145 23.8965 20.7091 23.8964 20.6406 23.9649 19.7505 24.9236 18.5864 25.4713 17.4908 26.0876 16.8061 26.4984 16.4637 26.9093 16.6007 27.731 16.6691 28.6896 16.6691 28.6896 17.5593 28.9635 17.6278 28.9635 17.6278 28.9635 17.6962 28.9635 19.2027 29.032 20.5721 29.1689 21.5308 29.2374zM19.682 19.788C19.682 19.9935 19.682 20.1989 19.682 20.4043 19.7505 21.5683 20.7091 22.39 21.8047 22.4585 22.9002 22.527 23.9273 21.7738 24.0643 20.6782 24.1328 20.0619 24.1328 19.4457 23.9958 18.8979 23.6535 17.5284 22.0101 16.8437 20.7776 17.5284 20.0243 18.0077 19.682 18.8294 19.682 19.788zM22.6958 4.44966C22.2164 4.44966 21.7371 4.44966 21.2578 4.44966 21.2578 3.97035 21.2578 3.49103 21.2578 3.01172 21.7371 3.01172 22.2164 3.01172 22.6958 3.01172 22.6958 3.49103 22.6958 3.97035 22.6958 4.44966zM4.68599 14.9267C4.20668 14.9267 3.72736 14.9267 3.24805 14.9267 3.24805 14.4474 3.24805 13.9681 3.24805 13.4888 3.72736 13.4888 4.20668 13.4888 4.68599 13.4888 4.68599 13.9681 4.68599 14.4474 4.68599 14.9267zM40.6352 13.4888C40.6352 13.9681 40.6352 14.4474 40.6352 14.9267 40.1559 14.9267 39.6766 14.9267 39.1973 14.9267 39.1973 14.4474 39.1973 13.9681 39.1973 13.4888 39.6766 13.4888 40.1559 13.4888 40.6352 13.4888zM4.68599 34.4417C4.20668 34.4417 3.72736 34.4417 3.24805 34.4417 3.24805 33.9624 3.24805 33.4831 3.24805 33.0038 3.72736 33.0038 4.20668 33.0038 4.68599 33.0038 4.68599 33.4831 4.68599 33.9624 4.68599 34.4417zM40.6352 33.0038C40.6352 33.4831 40.6352 33.9624 40.6352 34.4417 40.1559 34.4417 39.6766 34.4417 39.1973 34.4417 39.1973 33.9624 39.1973 33.4831 39.1973 33.0038 39.6766 33.0038 40.1559 33.0038 40.6352 33.0038zM22.6958 43.4807C22.6958 43.96 22.6958 44.4393 22.6958 44.9187 22.2164 44.9187 21.7371 44.9187 21.2578 44.9187 21.2578 44.4393 21.2578 43.96 21.2578 43.4807 21.7371 43.4807 22.148 43.4807 22.6958 43.4807z" fill="#fff"/></symbol><symbol viewBox="0 0 54 32" fill="none" id="svg-4"><path d="M32.8129 20.345V3.33628C32.8129 3.07614 32.828 2.79304 32.8582 2.48699C32.9186 2.18094 32.9791 1.86723 33.0395 1.54588L5.30854 20.345H32.8129ZM58.4824 20.345V21.5386C58.4824 21.707 58.3766 21.8447 58.1652 21.9518C57.9839 22.0436 57.6819 22.0895 57.2589 22.0895H36.6191V31.4088H32.8129V22.0895H2.4992C2.04608 22.0895 1.69869 22.0436 1.45702 21.9518C1.21536 21.8447 1.04921 21.707 0.958589 21.5386L0.550781 20.4598L32.7676 -1.11676H36.6191V20.345H58.4824Z" fill="#fff"/></symbol><symbol viewBox="0 0 48 48" fill="none" id="svg-adv01"><g clip-path="url(#fclip0_1457_20712)" fill="#fff"><path d="M34.8749 14.55C33.5249 15.9 32.1749 17.25 30.7499 18.675C32.3999 20.85 32.9999 23.325 32.3999 26.025C31.8749 28.125 30.6749 29.85 28.8749 31.05C25.3499 33.525 20.6249 33 17.6999 29.85C14.6999 26.625 14.5499 21.9 17.3999 18.525C19.9499 15.45 24.8999 13.95 29.3249 17.175C30.6749 15.825 32.0249 14.475 33.3749 13.05C30.9749 11.025 28.1999 9.825 24.8999 9.6C24.8999 10.5 24.8999 11.325 24.8999 12.225C24.8999 12.975 24.5249 13.425 23.9249 13.425C23.3249 13.425 22.9499 12.975 22.9499 12.225C22.9499 10.275 22.9499 8.4 22.9499 6.45C22.9499 6.225 22.9499 6 22.9499 5.775C21.0749 5.85 19.2749 6.225 17.5499 6.9C11.5499 9.3 7.72488 13.65 6.14988 19.95C6.14988 20.1 6.07488 20.175 6.07488 20.325C5.92488 20.85 5.47488 21.15 4.94988 21.075C4.42488 20.925 4.12488 20.475 4.19988 19.875C4.72488 17.175 5.77488 14.7 7.34988 12.525C11.0999 7.5 15.9749 4.575 22.1999 3.975C22.4249 3.975 22.7249 3.9 23.0249 3.9C23.0249 3.075 23.0249 2.175 23.0249 1.35C23.0249 0.45 23.3249 0 23.9999 0C24.5999 0 24.9749 0.45 24.9749 1.275C24.9749 3.225 24.9749 5.1 24.9749 7.05C24.9749 7.275 24.9749 7.5 24.9749 7.725C28.7249 8.025 32.0249 9.375 34.7999 11.775C35.2499 11.325 35.6249 10.875 36.1499 10.35C35.1749 9.675 34.2749 8.925 33.2249 8.325C31.5749 7.35 29.8499 6.6 27.9749 6.225C27.8249 6.225 27.6749 6.15 27.5999 6.15C27.0749 6 26.7749 5.475 26.9249 4.95C27.0749 4.425 27.5249 4.125 28.1249 4.275C30.5249 4.725 32.6999 5.625 34.7249 6.975C35.6999 7.65 36.5999 8.325 37.7249 9.15C37.7999 8.85 38.0249 8.625 38.0249 8.4C38.0249 7.35 38.0249 6.375 38.0249 5.325C38.0249 4.95 38.1749 4.5 38.4749 4.275C39.6749 3 40.9499 1.725 42.2249 0.45C42.5999 0.075 42.9749 -0.075 43.4249 0.15C43.8749 0.3 44.0249 0.75 44.0249 1.2C44.0249 2.175 44.0249 3.075 44.0249 4.125C44.9999 4.125 45.9749 4.125 46.9499 4.125C47.4749 4.125 47.8499 4.275 48.0749 4.725C48.2249 5.25 48.0749 5.625 47.6999 5.925C46.4249 7.125 45.2249 8.4 44.0249 9.6C43.7249 9.9 43.2749 10.05 42.8999 10.05C41.9249 10.125 40.8749 10.05 39.8999 10.05C39.6749 10.05 39.3749 10.275 39.0749 10.35C40.7249 12.225 41.9249 14.1 42.8249 16.275C43.7249 18.45 44.1749 20.625 44.3249 23.025C45.2249 23.025 46.1249 23.025 46.9499 23.025C47.6999 23.025 48.1499 23.4 48.1499 24C48.1499 24.6 47.6999 24.975 46.9499 24.975C44.9999 24.975 43.0499 24.975 41.0999 24.975C40.8749 24.975 40.6499 24.975 40.5749 24.975C40.1249 26.625 39.8999 28.275 39.2999 29.775C37.3499 34.8 33.7499 38.1 28.5749 39.675C28.4249 39.675 28.3499 39.75 28.1999 39.75C27.5999 39.9 27.1499 39.6 26.9999 39.075C26.8499 38.55 27.1499 38.1 27.7499 37.875C28.1249 37.725 28.4999 37.65 28.7999 37.5C34.4999 35.325 37.7249 31.125 38.3999 25.125C38.3999 25.05 38.3999 25.05 38.3999 24.9C37.5749 24.9 36.6749 24.9 35.8499 24.9C35.0999 24.9 34.6499 24.525 34.6499 23.925C34.6499 23.325 35.0999 22.95 35.8499 22.95C37.7999 22.95 39.6749 22.95 41.6249 22.95C41.8499 22.95 42.0749 22.95 42.2999 22.95C41.9999 18.675 40.4999 14.925 37.7249 11.775C37.2749 12.225 36.8249 12.675 36.3749 13.125C36.4499 13.2 36.5249 13.35 36.6749 13.5C38.0999 15.225 39.1499 17.175 39.7499 19.35C40.0499 20.25 39.8249 20.775 39.2249 21C38.6249 21.15 38.1749 20.775 37.9499 19.95C37.1999 18 36.2249 16.2 34.8749 14.55ZM27.8999 18.675C25.6499 16.8 21.7499 16.65 19.1249 19.35C16.5749 22.05 16.5749 26.025 19.1999 28.65C21.8249 31.275 25.8749 31.35 28.4999 28.8C31.1999 26.25 31.1999 22.35 29.2499 19.95C28.8749 20.325 28.5749 20.625 28.1999 21C27.8999 21.225 27.9749 21.45 28.1249 21.75C28.6499 22.8 28.8749 23.85 28.5749 24.975C27.9749 27.6 25.2749 29.25 22.7249 28.575C20.0999 27.9 18.5249 25.125 19.2749 22.575C20.0999 19.95 22.8749 18.375 25.3499 19.425C26.3999 19.875 26.9999 19.575 27.5249 18.825C27.7499 18.825 27.8249 18.75 27.8999 18.675ZM26.5499 22.725C25.8749 23.4 25.2749 24.075 24.6749 24.675C24.2999 25.05 23.7749 25.05 23.3999 24.675C23.0249 24.3 22.9499 23.85 23.2499 23.4C23.3999 23.25 23.5499 23.1 23.6999 22.95C24.2249 22.425 24.7499 21.9 25.2749 21.375C23.8499 20.775 22.4249 21.225 21.6749 22.35C20.9249 23.475 21.0749 24.975 22.0499 25.95C23.0249 26.925 24.4499 27.075 25.6499 26.325C26.6999 25.575 27.1499 24.15 26.5499 22.725ZM39.8999 8.1C40.7249 8.1 41.4749 8.1 42.2249 8.1C42.3749 8.1 42.5999 8.1 42.6749 8.025C43.2749 7.425 43.9499 6.75 44.6999 6C44.0249 6 43.4999 6 43.0499 6C42.3749 6 41.9999 5.625 41.9999 4.95C41.9999 4.425 41.9999 3.9 41.9999 3.225C41.2499 3.975 40.6499 4.575 40.0499 5.175C39.9749 5.25 39.8999 5.4 39.8999 5.55C39.8249 6.45 39.8999 7.2 39.8999 8.1Z"/><path d="M3.7498 24.975C2.9248 24.975 2.0248 24.975 1.1248 24.975C0.374805 24.975 -0.0751953 24.6 -0.0751953 24C-0.0751953 23.4 0.374805 23.1 1.0498 23.025C3.2248 23.025 5.3248 23.025 7.4998 23.025C7.79981 21.75 7.94981 20.55 8.32481 19.35C8.62481 18.375 9.07481 17.4 9.44981 16.5C9.74981 15.9 10.2748 15.675 10.7998 15.975C11.3248 16.275 11.4748 16.8 11.0998 17.4C10.1998 19.2 9.5998 21.075 9.52481 23.1C10.3498 23.1 11.0998 23.1 11.9248 23.1C12.8248 23.1 13.2748 23.4 13.3498 24.075C13.3498 24.75 12.8998 25.05 11.9248 25.05C10.0498 25.05 8.24981 25.05 6.3748 25.05C6.14981 25.05 5.9248 25.05 5.6998 25.05C5.7748 26.625 5.9998 28.125 6.52481 29.55C8.77481 36.075 13.1998 40.2 19.8748 41.85C20.0998 41.925 20.3998 42 20.6248 42.15C20.9998 42.45 21.1498 42.825 20.9248 43.275C20.6998 43.725 20.3248 43.95 19.7998 43.875C17.4748 43.35 15.2248 42.525 13.1998 41.25C7.79981 37.5 4.6498 32.4 3.8998 25.8C3.8998 25.575 3.8248 25.35 3.8248 25.125C3.8248 25.125 3.8248 25.05 3.7498 24.975Z"/><path d="M24.9748 44.175C24.9748 45.075 24.9748 45.9 24.9748 46.8 24.9748 47.55 24.5998 48 23.9998 48 23.3998 48 23.0248 47.55 23.0248 46.8 23.0248 44.85 23.0248 42.9 23.0248 40.95 23.0248 40.725 23.0248 40.5 23.0248 40.35 22.0498 40.2 21.1498 40.05 20.2498 39.825 14.1748 38.25 10.1998 34.5 8.32481 28.5 8.24981 28.275 8.1748 28.125 8.1748 27.9 8.1748 27.375 8.39981 27.075 8.84981 26.925 9.29981 26.775 9.74981 26.925 9.97481 27.375 10.0498 27.6 10.1248 27.825 10.1998 28.05 11.8498 33.75 17.1748 38.1 23.0248 38.325 23.0248 37.5 23.0248 36.6 23.0248 35.775 23.0248 35.025 23.3998 34.575 23.9248 34.575 24.5248 34.575 24.8998 35.025 24.8998 35.775 24.8998 37.65 24.8998 39.6 24.8998 41.475 24.8998 41.7 24.8998 41.925 24.8998 42.3 26.0998 42.075 27.2998 41.925 28.4248 41.7 30.4498 41.25 32.2498 40.425 33.9748 39.3 34.1248 39.225 34.2748 39.075 34.4248 39 34.8748 38.85 35.2498 38.925 35.5498 39.3 35.8498 39.675 35.7748 40.125 35.4748 40.425 35.3248 40.575 35.0998 40.725 34.8748 40.875 31.9498 42.75 28.7248 43.8 25.2748 44.1 25.2748 44.1 25.1248 44.175 24.9748 44.175zM40.3505 35.3249C39.3755 35.3249 39.0005 34.5749 39.3755 33.7499 40.0505 32.3999 40.7255 30.975 41.3255 29.55 41.5505 28.95 41.7005 28.275 41.8505 27.675 42.0005 27.075 42.4505 26.7749 42.9755 26.8499 43.5005 26.9999 43.8005 27.4499 43.7255 28.1249 43.2755 30.5249 42.3755 32.6999 41.0255 34.7249 40.8005 35.0249 40.5005 35.2499 40.3505 35.3249zM15.3754 12.225C15.1504 12 14.7754 11.775 14.6254 11.4 14.4004 10.95 14.7004 10.575 15.0754 10.275 16.5004 9.37498 18.0754 8.62498 19.7254 8.24998 20.2504 8.09998 20.6254 8.24998 20.8504 8.69998 21.1504 9.22498 20.9254 9.89998 20.3254 10.125 18.7504 10.575 17.3254 11.175 15.9754 12.075 15.9004 12.075 15.7504 12.075 15.3754 12.225zM13.6504 13.65C13.6504 14.175 13.2004 14.55 12.6754 14.55 12.1504 14.55 11.7754 14.1 11.7754 13.575 11.7754 13.05 12.2254 12.675 12.7504 12.675 13.2004 12.675 13.6504 13.125 13.6504 13.65zM38.7 37.35C38.7 37.875 38.25 38.325 37.725 38.325 37.2 38.325 36.75 37.95 36.75 37.425 36.75 36.9 37.125 36.45 37.65 36.45 38.25 36.45 38.7 36.825 38.7 37.35z"/></g><defs><clipPath id="fclip0_1457_20712"><path fill="#fff" d="M0 0H48V48H0z"/></clipPath></defs></symbol><symbol viewBox="0 0 48 43" fill="none" id="svg-adv02"><path d="M3.2 37.6H24.8V40C24.8 41.325 25.875 42.4 27.2 42.4H30.4C31.1 42.4 31.7625 42.0875 32.2125 41.5625C32.225 41.5625 32.2375 41.5625 32.25 41.55C32.8375 42.1 33.6 42.4 34.4 42.4H44C45.325 42.4 46.4 41.325 46.4 40C46.4 39.5875 46.2875 39.175 46.075 38.825C47.1625 38.15 47.525 36.7375 46.875 35.625C47.475 35.25 47.875 34.625 47.975 33.925C48.075 33.225 47.85 32.5125 47.375 32C48.0125 31.3 48.175 30.2875 47.7875 29.425C47.4 28.5625 46.5375 28 45.5875 28H43.1875V3.2C43.1875 1.4375 41.75 0 39.9875 0H3.2C1.4375 0 0 1.4375 0 3.2V34.4C0 36.1625 1.4375 37.6 3.2 37.6ZM30.4 40.8H27.2C26.7625 40.8 26.4 40.4375 26.4 40V32.8C26.4 32.3625 26.7625 32 27.2 32H30.4C30.8375 32 31.2 32.3625 31.2 32.8V40C31.2 40.4375 30.8375 40.8 30.4 40.8ZM46.4 30.4C46.4 30.8375 46.0375 31.2 45.6 31.2H43.2C42.7625 31.2 42.4 31.5625 42.4 32C42.4 32.4375 42.7625 32.8 43.2 32.8H45.6C46.0375 32.8 46.4 33.1625 46.4 33.6C46.4 34.0375 46.0375 34.4 45.6 34.4H43.2C42.7625 34.4 42.4 34.7625 42.4 35.2C42.4 35.6375 42.7625 36 43.2 36H44.8C45.2375 36 45.6 36.3625 45.6 36.8C45.6 37.2375 45.2375 37.6 44.8 37.6H43.2C42.7625 37.6 42.4 37.9625 42.4 38.4C42.4 38.8375 42.7625 39.2 43.2 39.2H44C44.4375 39.2 44.8 39.5625 44.8 40C44.8 40.4375 44.4375 40.8 44 40.8H34.4C33.5125 40.8 32.8 40.0875 32.8 39.2V32.4625C33.8 31.8375 34.55 30.875 34.925 29.7625C35.6375 27.625 36 25.3875 36 23.1375C36 23.025 36.075 22.9375 36.175 22.9C36.45 22.85 37.1625 22.725 37.8375 24.05C38.2125 24.8125 38.4 25.65 38.3875 26.5125V28.8C38.3875 29.2375 38.75 29.6 39.1875 29.6H45.5875C46.0375 29.6 46.4 29.9625 46.4 30.4ZM40 28V26.5125C40.0125 25.4125 39.7625 24.3125 39.275 23.325C38.4875 21.7875 37.2875 21.075 35.9 21.325C35.025 21.4875 34.4 22.25 34.4 23.1375C34.4 25.2125 34.0625 27.2875 33.4125 29.2625C33.1625 30 32.675 30.625 32.025 31.0625C31.5875 30.65 31 30.425 30.4 30.4125H27.2C25.875 30.4125 24.8 31.4875 24.8 32.8125V36.0125H3.2C2.3125 36.0125 1.6 35.3 1.6 34.4125V8H41.6V28H40ZM3.2 1.6H40C40.8875 1.6 41.6 2.3125 41.6 3.2V6.4H1.6V3.2C1.6 2.3125 2.3125 1.6 3.2 1.6Z" fill="#fff"/><path fill-rule="evenodd" clip-rule="evenodd" d="M4.79922 3.99898C4.79922 4.43648 4.43672 4.79898 3.99922 4.79898 3.56172 4.79898 3.19922 4.43648 3.19922 3.99898 3.19922 3.56148 3.56172 3.19897 3.99922 3.19897 4.43672 3.19897 4.79922 3.56148 4.79922 3.99898zM8.00039 3.99898C8.00039 4.43648 7.63789 4.79898 7.20039 4.79898 6.76289 4.79898 6.40039 4.43648 6.40039 3.99898 6.40039 3.56148 6.76289 3.19897 7.20039 3.19897 7.63789 3.19897 8.00039 3.56148 8.00039 3.99898zM11.1996 3.99898C11.1996 4.43648 10.8371 4.79898 10.3996 4.79898 9.96211 4.79898 9.59961 4.43648 9.59961 3.99898 9.59961 3.56148 9.96211 3.19897 10.3996 3.19897 10.8371 3.19897 11.1996 3.56148 11.1996 3.99898z" fill="#fff"/><path d="M6.4 24.8005H19.2C20.525 24.8005 21.6 23.7255 21.6 22.4005V12.8005C21.6 11.4755 20.525 10.4005 19.2 10.4005H6.4C5.075 10.4005 4 11.4755 4 12.8005V22.4005C4 23.7255 5.075 24.8005 6.4 24.8005ZM8.3625 23.2005L12.0625 17.3755L13.8375 19.6005L11.5625 23.2005H8.3625ZM19.2 23.2005H13.4625L17.675 16.5755L20 19.488V22.413C20 22.838 19.6375 23.2005 19.2 23.2005ZM5.6 12.8005C5.6 12.363 5.9625 12.0005 6.4 12.0005H19.2C19.6375 12.0005 20 12.363 20 12.8005V16.9255L18.225 14.7005C18.0625 14.5005 17.8125 14.388 17.5625 14.4005C17.3 14.413 17.075 14.5505 16.925 14.7755L14.7625 18.1755L12.625 15.5005C12.4625 15.3005 12.2125 15.188 11.9625 15.2005C11.7 15.213 11.475 15.3505 11.325 15.5755L6.475 23.2005H6.4C5.9625 23.2005 5.6 22.838 5.6 22.4005V12.8005Z" fill="#fff"/><path fill-rule="evenodd" clip-rule="evenodd" d="M8.79922 14.3995C8.79922 14.837 8.43672 15.1995 7.99922 15.1995 7.56172 15.1995 7.19922 14.837 7.19922 14.3995 7.19922 13.962 7.56172 13.5995 7.99922 13.5995 8.43672 13.5995 8.79922 13.962 8.79922 14.3995zM38.4 11.199H24.8C24.3625 11.199 24 11.5615 24 11.999 24 12.4365 24.3625 12.799 24.8 12.799H38.4C38.8375 12.799 39.2 12.4365 39.2 11.999 39.2 11.5615 38.8375 11.199 38.4 11.199zM38.4 14.4005H24.8C24.3625 14.4005 24 14.763 24 15.2005 24 15.638 24.3625 16.0005 24.8 16.0005H38.4C38.8375 16.0005 39.2 15.638 39.2 15.2005 39.2 14.763 38.8375 14.4005 38.4 14.4005zM38.4 17.5995H24.8C24.3625 17.5995 24 17.962 24 18.3995 24 18.837 24.3625 19.1995 24.8 19.1995H38.4C38.8375 19.1995 39.2 18.837 39.2 18.3995 39.2 17.962 38.8375 17.5995 38.4 17.5995zM32 20.801H24.8C24.3625 20.801 24 21.1635 24 21.601 24 22.0385 24.3625 22.401 24.8 22.401H32C32.4375 22.401 32.8 22.0385 32.8 21.601 32.8 21.1635 32.4375 20.801 32 20.801zM23.2 28H4.8C4.3625 28 4 28.3625 4 28.8 4 29.2375 4.3625 29.6 4.8 29.6H23.2C23.6375 29.6 24 29.2375 24 28.8 24 28.3625 23.6375 28 23.2 28zM20.8 31.199H4.8C4.3625 31.199 4 31.5615 4 31.999 4 32.4365 4.3625 32.799 4.8 32.799H20.8C21.2375 32.799 21.6 32.4365 21.6 31.999 21.6 31.5615 21.2375 31.199 20.8 31.199z" fill="#fff"/></symbol><symbol viewBox="0 0 48 48" fill="none" id="svg-adv03"><path d="M13.3441 47.1533C12.474 46.7666 12.0873 46.1866 12.184 45.2199C12.184 44.7365 12.184 44.1564 12.184 43.6731C11.9906 43.6731 11.7973 43.6731 11.604 43.6731C9.28378 43.6731 7.06029 43.6731 4.74012 43.6731C3.58004 43.6731 3 43.093 3 41.933C3 41.4496 3 40.9662 3 40.4828C3 39.9995 3.29002 39.7095 3.67672 39.7095C4.06341 39.7095 4.35343 39.9995 4.35343 40.4828C4.35343 40.9662 4.35343 41.4496 4.35343 41.933C4.35343 42.1263 4.4501 42.223 4.64345 42.223C7.15696 42.223 9.5738 42.223 12.184 42.223C12.184 40.6762 12.184 39.2261 12.184 37.776C10.3472 36.6159 9.76715 35.8425 9.47713 33.7157C8.31705 33.7157 7.15696 33.619 6.09356 33.7157C5.12682 33.8124 4.4501 34.8758 4.35343 35.9392C4.35343 36.4226 4.35343 36.8093 4.35343 37.2926C4.35343 37.776 4.06341 38.066 3.67672 38.066C3.29002 38.066 3 37.776 3 37.2926C3 36.8093 3 36.2292 3 35.7458C3.09667 34.5858 3.67672 33.619 4.64345 32.9423C4.74012 32.8456 4.8368 32.8456 4.93347 32.749C4.54678 31.4922 4.06341 30.3321 3.77339 29.172C2.22661 22.9849 3.19335 17.2812 6.77027 11.9641C6.96362 11.6741 7.06029 11.4808 6.86694 11.0941C6.38358 10.1273 6.57692 8.96726 7.35031 8.19387C8.1237 7.42048 9.18711 7.13046 10.2505 7.61383C10.4439 7.80717 10.6372 7.7105 10.8306 7.51715C11.9906 6.74376 13.0541 5.97037 14.2141 5.19699C14.6975 4.90696 15.0842 5.00364 15.2775 5.39033C15.4709 5.77703 15.2775 6.06705 14.8909 6.35707C13.8274 7.13046 12.764 7.80717 11.7006 8.58056C11.5073 8.67724 11.5073 8.87058 11.604 9.06393C11.9906 10.0307 11.7973 10.9974 11.1206 11.6741C10.4439 12.4475 9.5738 12.7375 8.5104 12.4475C8.22037 12.3508 8.1237 12.4475 7.93035 12.6409C5.99688 15.4444 4.8368 18.5379 4.54678 22.0182C4.16008 25.4984 4.74012 28.7853 6.09356 31.9756C6.19023 32.2656 6.38358 32.3623 6.77027 32.3623C8.1237 32.3623 9.47713 32.3623 10.7339 32.3623C10.8306 31.9756 10.7339 31.7822 10.5405 31.5889C9.38046 30.6221 8.60707 29.4621 8.41372 28.012C8.41372 27.7219 8.31705 27.6253 8.02703 27.5286C6.2869 27.0452 5.70686 24.9184 6.96362 23.565C7.06029 23.4683 7.15697 23.1783 7.15697 22.9849C7.15697 21.5348 7.15697 20.1814 7.15697 18.7313C7.15697 16.6045 8.5104 15.0577 10.4439 14.671C10.7339 14.5743 11.1206 14.5743 11.4106 14.5743C12.8607 14.5743 14.3108 14.5743 15.7609 14.5743C16.7277 14.5743 17.6944 14.8643 18.4678 15.5411C18.5645 15.6377 18.7578 15.6377 18.8545 15.6377C19.7245 15.251 20.5946 15.1544 21.5613 15.1544C22.0447 15.1544 22.4314 15.1544 22.9148 15.1544C23.3015 15.1544 23.5915 15.4444 23.6882 15.8311C23.6882 16.2178 23.3981 16.5078 22.9148 16.5078C22.238 16.5078 21.5613 16.5078 20.8846 16.5078C19.1445 16.5078 17.6944 17.8612 17.5977 19.6014C17.501 21.0515 17.5977 22.5016 17.5977 23.9517C17.5977 24.0483 17.5977 24.0483 17.5977 24.145C17.9844 24.2417 17.9844 24.0483 18.0811 23.7583C18.2744 22.6949 18.6611 21.7282 19.2412 20.8581C19.6279 20.3747 19.8212 20.2781 20.4012 20.4714C22.238 21.0515 23.9782 21.5348 25.9116 21.7282C26.395 21.7282 26.9751 21.7282 27.4584 21.6315C27.7484 21.5348 28.1351 21.3415 28.3285 21.1481C28.7152 20.7614 29.1985 20.7614 29.4886 21.2448C29.9719 22.0182 30.3586 22.8883 30.4553 23.7583C30.4553 23.9517 30.552 24.2417 30.842 24.145C30.842 24.0483 30.842 23.9517 30.842 23.855C30.842 22.8883 30.842 21.9215 30.842 20.9548C30.842 20.4714 30.7453 20.1814 30.1653 20.1814C29.7786 20.0847 29.5852 19.7947 29.5852 19.408C29.5852 18.6346 29.2952 18.0546 28.8119 17.4745C28.2318 16.7978 27.4584 16.5078 26.685 16.5078C26.395 16.5078 26.105 16.5078 25.9116 16.5078C25.525 16.5078 25.2349 16.2178 25.2349 15.8311C25.2349 15.4444 25.525 15.1544 25.9116 15.1544C26.9751 15.0577 28.0385 15.251 28.9085 15.7344C29.8753 14.7677 31.0353 14.4777 32.2921 14.5743C33.7422 14.5743 35.0956 14.5743 36.5457 14.5743C38.3825 14.5743 39.8326 15.7344 40.316 17.4745C40.316 17.5712 40.4127 17.7646 40.606 17.8612C41.1861 18.2479 41.4761 18.828 41.4761 19.5047C41.4761 20.5681 41.4761 21.7282 41.4761 22.7916C41.4761 22.9849 41.5728 23.2749 41.7661 23.3716C43.0229 24.7251 42.4428 26.7552 40.7027 27.3352C40.4127 27.4319 40.4127 27.5286 40.316 27.7219C40.026 29.172 39.3493 30.4288 38.1892 31.3955C37.9958 31.4922 37.9958 31.7822 37.8025 31.9756L37.8992 32.0722C38.5759 32.0722 39.1559 32.0722 39.8326 32.0722C40.5094 32.0722 41.2827 32.0722 41.9595 32.0722C42.3462 32.0722 42.4428 31.9756 42.6362 31.6856C43.9896 28.4953 44.473 25.2084 44.183 21.8248C43.8929 18.4413 42.7329 15.3477 40.8961 12.5442C40.7027 12.2542 40.5094 12.1575 40.2193 12.2542C39.2526 12.5442 38.3825 12.2542 37.7058 11.4808C37.0291 10.7074 36.8358 9.83732 37.2225 8.87058C37.1258 8.87058 37.0291 8.67724 36.8358 8.48389C34.0322 6.2604 30.842 4.81029 27.2651 4.23025C26.8784 4.13358 26.685 4.23025 26.4917 4.61694C25.5249 6.35707 23.0114 6.2604 22.0447 4.61694C21.8514 4.32692 21.658 4.23025 21.368 4.32692C20.2079 4.61694 19.0478 4.90696 17.8877 5.19699C17.6944 5.29366 17.3077 5.29366 17.1143 5.19699C16.921 5.10031 16.7277 4.81029 16.8243 4.61694C16.921 4.4236 17.1143 4.0369 17.3077 4.0369C18.4678 3.65021 19.5312 3.45686 20.6913 3.16684C20.7879 3.16684 20.7879 3.16684 20.8846 3.16684C21.4647 3.16684 21.7547 2.97349 21.948 2.39345C22.4314 1.23337 23.3015 0.75 24.4615 0.75C25.525 0.846674 26.395 1.33004 26.7817 2.39345C26.9751 2.78015 27.1684 2.87682 27.5551 2.97349C31.422 3.55353 34.8056 5.00364 37.8025 7.51715C38.0925 7.7105 38.2859 7.80717 38.6726 7.61383C39.6393 7.22713 40.7994 7.51715 41.4761 8.29054C42.1528 9.06393 42.3462 10.224 41.8628 11.1907C41.7661 11.3841 41.6694 11.5774 41.8628 11.8675C46.2131 18.3446 46.7931 25.2084 43.8929 32.4589C43.8929 32.5556 43.7963 32.6523 43.7963 32.749C43.9896 32.8456 44.0863 32.9423 44.2796 33.1357C45.2464 33.909 45.7297 34.8758 45.7297 36.1325C45.7297 38.066 45.7297 40.0962 45.7297 42.0296C45.7297 43.1897 45.1497 43.7698 43.9896 43.7698C41.6694 43.7698 39.4459 43.7698 37.1258 43.7698C36.9324 43.7698 36.7391 43.7698 36.5457 43.7698C36.5457 44.3498 36.5457 44.8332 36.5457 45.3165C36.6424 46.2833 36.2557 46.8633 35.3857 47.25C27.9418 47.1533 20.6913 47.1533 13.3441 47.1533ZM29.1985 36.1325C28.9085 39.2261 26.5884 40.8695 24.3649 40.8695C23.2048 40.8695 22.238 40.5795 21.368 39.8061C20.1112 38.8394 19.5312 37.5826 19.4345 36.0359C18.3711 36.0359 17.4044 36.0359 16.341 36.0359C14.6008 36.0359 13.5374 37.0993 13.5374 38.8394C13.5374 40.9662 13.5374 43.093 13.5374 45.2199C13.5374 45.6066 13.6341 45.7999 14.1175 45.7999C18.0811 45.7999 22.0447 45.7999 26.0083 45.7999C28.9085 45.7999 31.8087 45.7999 34.7089 45.7999C34.9023 45.7999 35.1923 45.8966 35.1923 45.5099C35.1923 43.1897 35.1923 40.9662 35.1923 38.6461C35.1923 37.3893 34.1289 36.2292 32.9688 36.2292C31.6154 36.0359 30.4553 36.1325 29.1985 36.1325ZM28.9085 22.8883C25.815 23.9517 23.1081 22.7916 20.3046 22.1149C20.2079 22.2115 20.1112 22.3082 20.1112 22.5016C19.6279 23.1783 19.4345 23.9517 19.4345 24.7251C19.4345 26.3685 19.3378 28.012 19.5312 29.5587C19.8212 32.0722 22.1414 33.909 24.6549 33.7157C27.1684 33.5224 29.1985 31.4922 29.1985 28.9787C29.1985 27.5286 29.1985 26.0785 29.1985 24.6284C29.1985 24.0483 29.0052 23.4683 28.9085 22.8883ZM10.0572 21.4382C9.9605 22.0182 9.76715 22.5016 9.67048 22.9849C9.5738 24.435 9.5738 25.9818 9.67048 27.4319C9.86383 30.0421 12.184 31.7822 14.6975 31.3955C15.9543 31.2022 17.0177 30.4288 17.6944 29.3654C17.5977 29.3654 17.501 29.2687 17.501 29.2687C15.8576 28.592 15.2775 27.0452 16.1476 25.4984C16.1476 25.4018 16.2443 25.4018 16.2443 25.3051C16.2443 24.3384 16.2443 23.4683 16.2443 22.5016C14.1175 22.5016 12.184 22.0182 10.0572 21.4382ZM44.183 42.3196C44.183 40.0962 44.183 37.9693 44.183 35.8425C44.183 34.8758 43.4096 33.909 42.4428 33.8124C41.2827 33.7157 40.2193 33.8124 39.0593 33.8124C38.7692 35.9392 38.1892 36.8093 36.3524 37.8727C36.3524 39.4194 36.3524 40.8695 36.3524 42.3196C39.0593 42.3196 41.5728 42.3196 44.183 42.3196ZM30.9387 29.2687C30.9387 29.3654 31.0353 29.4621 31.0353 29.4621C32.0021 30.9122 33.9356 31.6856 35.579 31.2989C37.4158 30.8155 38.7692 29.3654 38.8659 27.5286C38.9626 26.1752 38.9626 24.7251 38.8659 23.3716C38.8659 22.8883 38.6726 22.3082 38.6726 21.8248C36.4491 22.8883 34.4189 22.2115 32.2921 21.8248C32.2921 22.7916 32.2921 23.7583 32.2921 24.7251C32.2921 25.0151 32.3888 25.2084 32.4854 25.4018C33.1622 26.7552 32.6788 28.3987 31.2287 28.9787C31.132 29.172 31.0353 29.2687 30.9387 29.2687ZM30.0686 16.7011C30.3586 17.3779 30.6486 18.0546 30.9387 18.7313C31.0353 19.0213 31.132 19.118 31.3254 19.3113C31.6154 19.6014 31.9054 19.8914 32.1954 20.2781C32.2921 20.3747 32.4854 20.5681 32.5821 20.6648C33.2588 20.8581 33.8389 21.0515 34.5156 21.0515C35.4823 21.1481 36.3524 21.1481 37.3191 21.0515C37.6091 21.0515 37.8025 20.6648 37.9958 20.4714C38.1892 20.2781 38.3825 19.988 38.5759 19.988C38.7692 19.988 39.0593 20.1814 39.2526 20.3747C39.5426 20.7614 39.736 21.1481 39.9293 21.6315C39.9293 20.8581 39.9293 20.1814 39.9293 19.6014C39.9293 19.5047 39.736 19.3113 39.6393 19.2147C39.1559 19.118 38.9626 18.828 38.9626 18.3446C38.8659 17.0878 37.8992 16.1211 36.6424 16.1211C34.999 16.1211 33.3555 16.1211 31.7121 16.1211C31.0353 16.0244 30.4553 16.3145 30.0686 16.7011ZM8.60707 21.4382C8.80042 21.1481 8.99376 20.8581 9.09044 20.5681C9.47713 19.988 9.67048 19.8914 10.3472 20.0847C11.3139 20.3747 12.2807 20.5681 13.2474 20.8581C14.2141 21.0515 15.2775 21.2448 16.341 21.0515C16.2443 19.408 16.4376 17.8612 17.5977 16.7011C17.1143 16.3145 16.631 16.1211 16.0509 16.1211C14.4075 16.1211 12.8607 16.1211 11.2173 16.1211C9.76715 16.1211 8.70374 17.0878 8.60707 18.5379C8.5104 19.408 8.60707 20.4714 8.60707 21.4382ZM26.2983 34.7791C24.7516 35.1658 24.2682 35.2625 22.238 34.7791C22.5281 35.9392 21.8514 36.2292 20.8846 36.0359C20.9813 37.9693 22.5281 39.5161 24.4615 39.5161C26.395 39.4194 27.9418 37.8727 27.8451 36.1325C27.4584 36.0359 26.9751 36.0359 26.7817 35.8425C26.395 35.6492 26.395 35.1658 26.2983 34.7791ZM12.6674 36.5192C13.1507 36.0359 13.6341 35.6492 14.1175 35.2625C14.8909 34.7791 15.6642 34.6824 16.631 34.6824C16.8243 34.6824 17.0177 34.5858 17.0177 34.4891C17.1143 34.2957 17.1143 34.0057 17.211 33.619C16.341 33.7157 15.7609 33.5224 15.8576 32.4589C14.6008 32.8456 13.4407 32.8456 12.2807 32.5556C12.184 32.9423 12.0873 33.329 11.894 33.5224C11.7006 33.7157 11.2173 33.7157 10.9272 33.8124C10.8306 34.8758 11.604 36.0359 12.6674 36.5192ZM32.7755 32.5556C32.5821 33.5224 32.5821 33.5224 31.5187 33.7157C31.422 34.5858 31.5187 34.6824 32.3888 34.6824C33.4522 34.6824 34.4189 34.9725 35.1923 35.7458C35.4823 35.9392 35.6757 36.2292 35.9657 36.5192C37.1258 36.0359 37.9958 34.6824 37.8025 33.7157C36.7391 33.619 36.6424 33.7157 36.5457 32.5556C35.1923 32.9423 34.0322 32.8456 32.7755 32.5556ZM9.18711 11.2874C9.86383 11.2874 10.4439 10.7074 10.4439 10.0307C10.4439 9.35395 9.86383 8.77391 9.28378 8.77391C8.60707 8.77391 8.02703 9.25728 8.02703 9.93399C7.93035 10.7074 8.5104 11.2874 9.18711 11.2874ZM24.2682 4.52027C24.9449 4.52027 25.5249 3.94023 25.5249 3.26351C25.5249 2.5868 24.9449 2.10343 24.2682 2.00676C23.5915 2.00676 23.0114 2.5868 23.0114 3.26351C23.1081 4.0369 23.5915 4.52027 24.2682 4.52027ZM39.4459 11.2874C40.1227 11.2874 40.7027 10.7074 40.7027 10.0307C40.7027 9.35395 40.2193 8.87058 39.5426 8.77391C38.8659 8.77391 38.2859 9.25728 38.2859 9.93399C38.1892 10.7074 38.7692 11.2874 39.4459 11.2874ZM20.7879 34.6824C20.8846 34.1024 20.6913 33.7157 20.3046 33.7157C19.7245 33.619 19.1445 33.7157 18.4678 33.7157C18.4678 34.1024 18.3711 34.3924 18.3711 34.6824C19.2412 34.6824 20.0146 34.6824 20.7879 34.6824ZM30.0686 33.7157C29.5852 33.7157 29.1019 33.7157 28.6185 33.7157C27.9418 33.7157 27.6518 34.0057 27.8451 34.6824C28.6185 34.6824 29.3919 34.6824 30.262 34.6824C30.1653 34.2957 30.1653 34.0057 30.0686 33.7157ZM31.422 32.2656C31.422 31.3955 30.552 31.2989 30.262 30.7188C29.9719 31.2989 29.7786 31.6856 29.4886 32.2656C30.1653 32.2656 30.7453 32.2656 31.422 32.2656ZM19.0478 32.2656C18.7578 31.7822 18.5645 31.2989 18.2744 30.8155C17.9844 31.1055 17.7911 31.2989 17.501 31.4922C17.211 31.6856 16.921 31.8789 17.1143 32.2656C17.8877 32.2656 18.4678 32.2656 19.0478 32.2656ZM17.9844 27.9153C17.9844 27.1419 17.9844 26.4652 17.9844 25.6918C17.4044 25.7885 17.1143 26.1752 17.1143 26.6585C17.1143 27.2386 17.4044 27.7219 17.9844 27.9153ZM30.552 25.6918C30.552 26.4652 30.552 27.1419 30.552 27.9153C31.132 27.8186 31.422 27.3352 31.422 26.8519C31.5187 26.2718 31.132 25.8851 30.552 25.6918ZM8.31705 24.3384C7.83368 24.5317 7.64033 24.9184 7.64033 25.3051C7.64033 25.6918 7.83368 25.9818 8.31705 26.1752C8.31705 25.5951 8.31705 25.0151 8.31705 24.3384ZM40.316 26.1752C40.7994 25.9818 40.9927 25.6918 40.9927 25.2084C40.9927 24.8217 40.7994 24.5317 40.316 24.3384C40.316 25.0151 40.316 25.5951 40.316 26.1752Z" fill="#fff"/></symbol><symbol viewBox="0 0 44 48" fill="none" id="svg-adv04"><path d="M21.4629 47.9315C20.5727 47.7261 19.751 47.4522 19.2032 46.699C18.8609 46.2197 18.587 45.6034 18.3131 45.0556C18.1761 44.7817 18.1077 44.6448 17.8338 44.5763C16.0535 44.234 14.2731 43.6177 12.6298 42.796C10.0278 41.495 7.76815 39.7147 5.91936 37.4551C5.71394 37.1812 5.50852 37.1812 5.23463 37.2496C3.52279 37.8659 1.674 37.1127 0.783842 35.5378C-0.106315 33.8944 0.236053 31.9087 1.74247 30.8131C2.01637 30.6077 2.08484 30.4023 1.94789 30.0599C0.715368 26.02 0.715368 21.9116 1.94789 17.8716C2.01637 17.5977 2.01637 17.3923 1.74247 17.1869C0.236053 16.0913 -0.174789 14.1056 0.715368 12.4622C1.60553 10.8188 3.45431 10.1341 5.23463 10.7504C5.57699 10.8873 5.71394 10.7504 5.91936 10.5449C7.76815 8.28531 10.0278 6.50499 12.6298 5.20399C14.2047 4.38231 15.9165 3.83452 17.6283 3.49215C18.0392 3.42368 18.3131 3.28673 18.45 2.73894C18.7239 1.09558 20.2988 0 22.0107 0C23.7225 0 25.2289 1.23252 25.5713 2.87589C25.6398 3.28673 25.8452 3.42368 26.1876 3.49215C28.995 4.03994 31.5285 5.13552 33.8566 6.77889C35.4315 7.87447 36.801 9.10699 37.965 10.5449C38.1704 10.8188 38.3759 10.8873 38.7182 10.7504C40.3616 10.1341 42.2789 10.8873 43.169 12.3937C44.0592 14.0371 43.7168 16.0228 42.2789 17.1184C42.005 17.3238 41.9365 17.5292 42.005 17.8716C43.2375 21.9116 43.2375 26.02 42.005 30.0599C41.9365 30.3338 41.9365 30.5392 42.2104 30.7447C43.5798 31.7718 44.0592 33.689 43.3744 35.2639C42.6212 36.9073 40.8409 37.8659 39.1975 37.3866C38.4443 37.1812 38.102 37.3866 37.6226 37.9344C34.6098 41.3581 30.7753 43.5492 26.3245 44.5078C25.9137 44.5763 25.6398 44.7817 25.5713 45.2611C25.1604 46.699 24.2018 47.5207 22.8323 47.9315C22.6954 47.9315 22.6269 48 22.49 48C22.0791 47.9315 21.8052 47.9315 21.4629 47.9315ZM21.9422 13.4893C16.1904 13.4893 11.4657 18.214 11.4657 23.9658C11.4657 29.7175 16.1904 34.4422 21.9422 34.4422C27.694 34.4422 32.4186 29.7175 32.4186 23.9658C32.4186 18.214 27.694 13.4893 21.9422 13.4893ZM18.3816 4.86163C13.6569 5.75178 9.82236 8.07989 6.80952 11.7775C7.6312 12.8046 7.9051 13.9001 7.6312 15.1327C7.6312 15.2696 7.76815 15.4066 7.83662 15.475C8.72678 15.9544 9.61694 16.4337 10.5071 16.913C10.9179 17.1184 11.3288 17.3923 11.7396 17.5977C14.2047 13.9686 17.5599 11.9829 21.9422 11.9829C26.3245 11.9829 29.6112 14.0371 32.0763 17.5977C33.2403 16.9815 34.3359 16.3652 35.4315 15.7489C35.9793 15.475 36.3216 15.2011 36.1847 14.4479C35.9793 13.4208 36.3901 12.5307 37.0749 11.709C34.062 8.01141 30.2275 5.68331 25.5028 4.79315C25.0235 6.2311 24.0649 7.05278 22.6269 7.39515C22.6269 8.42225 22.6269 9.44936 22.6269 10.408C22.1476 10.408 21.6683 10.408 21.1205 10.408C21.1205 9.38089 21.1205 8.35378 21.1205 7.39515C19.8195 7.05278 18.8609 6.2311 18.3816 4.86163ZM6.80952 36.1541C9.89083 39.8516 13.6569 42.1797 18.3816 43.0699C18.8609 41.7004 19.8195 40.8103 21.2575 40.4679C21.2575 39.4408 21.2575 38.4137 21.2575 37.4551C21.8052 37.4551 22.2161 37.4551 22.7639 37.4551C22.7639 38.4822 22.7639 39.5093 22.7639 40.4679C24.2018 40.8103 25.092 41.7004 25.5713 43.0699C30.296 42.1113 34.1305 39.8516 37.1433 36.1541C36.2532 34.7846 36.1847 34.3738 36.3216 32.7989C36.3216 32.6619 36.2532 32.525 36.1847 32.4565C34.8837 31.7033 33.5142 31.0185 32.1448 30.2653C29.6797 33.8944 26.3245 35.8802 21.9422 35.8802C17.5599 35.8802 14.2047 33.826 11.7396 30.2653C10.3701 31.0185 9.06915 31.7033 7.76815 32.4565C7.69968 32.525 7.56273 32.6619 7.6312 32.7989C7.9051 34.0999 7.56273 35.1954 6.80952 36.1541ZM11.0549 28.9643C9.61694 25.6091 9.61694 22.2539 11.0549 18.8987C9.61694 18.1455 8.24747 17.3238 6.80952 16.5706C5.85089 17.5977 4.75531 18.0086 3.38584 17.8716C2.15331 21.9116 2.15331 25.883 3.38584 29.923C4.75531 29.786 5.85089 30.2653 6.80952 31.224C8.24747 30.5392 9.61694 29.786 11.0549 28.9643ZM37.0749 31.2924C37.965 30.4023 38.9921 29.8545 40.2931 29.923C40.3616 29.923 40.567 29.7175 40.6355 29.6491C41.3202 27.4579 41.5941 25.2668 41.4572 22.9387C41.3887 21.2268 41.1148 19.5835 40.4985 17.9401C39.1975 18.077 38.102 17.6662 37.2118 16.776C37.1433 16.7076 36.9379 16.7076 36.801 16.776C36.1847 17.1184 35.5684 17.4608 35.0206 17.7347C34.3359 18.1455 33.5827 18.4879 32.898 18.8987C34.3359 22.2539 34.3359 25.6091 32.898 28.9643C34.2674 29.786 35.6369 30.5392 37.0749 31.2924ZM21.9422 5.9572C23.1747 5.9572 24.2018 4.9301 24.2018 3.76605C24.2018 2.53352 23.2432 1.50642 22.0107 1.50642C20.7781 1.50642 19.751 2.53352 19.751 3.76605C19.6826 4.9301 20.7097 5.9572 21.9422 5.9572ZM6.19326 14.2425C6.19326 13.01 5.16615 11.9829 3.93363 11.9829C2.7011 11.9829 1.674 13.01 1.674 14.2425C1.674 15.475 2.7011 16.4337 3.93363 16.4337C5.23463 16.4337 6.19326 15.4066 6.19326 14.2425ZM42.1419 14.2425C42.1419 13.01 41.1148 11.9829 39.9507 11.9829C38.7182 11.9829 37.6911 12.9415 37.6911 14.174C37.6911 15.4066 38.7182 16.4337 39.9507 16.4337C41.1148 16.5021 42.1419 15.475 42.1419 14.2425ZM6.19326 33.689C6.19326 32.4565 5.16615 31.4294 3.93363 31.4294C2.7011 31.4294 1.674 32.4565 1.674 33.689C1.674 34.9215 2.7011 35.9486 3.93363 35.9486C5.23463 35.9486 6.19326 34.9215 6.19326 33.689ZM42.1419 33.689C42.1419 32.4565 41.1148 31.4294 39.9507 31.4294C38.7182 31.4294 37.6911 32.388 37.6911 33.6205C37.6911 34.8531 38.7182 35.8802 39.9507 35.8802C41.1148 35.9486 42.1419 34.9215 42.1419 33.689ZM21.9422 41.9743C20.7097 41.9743 19.6826 43.0014 19.6826 44.1655C19.6826 45.398 20.7097 46.4251 21.9422 46.4251C23.1747 46.4251 24.2018 45.398 24.2018 44.1655C24.2018 42.933 23.1747 41.9743 21.9422 41.9743Z" fill="#fff"/><path d="M19.545 23.0748C18.1071 21.7738 17.9017 20.1989 18.3125 18.487 18.7233 16.7067 20.5037 15.5427 22.2155 15.6796 24.2012 15.885 25.5022 17.3915 25.6392 19.3772 25.7077 20.7467 25.4338 21.9792 24.2697 23.0063 24.4751 23.1432 24.6806 23.3487 24.886 23.4856 25.9816 24.1703 27.1456 24.8551 28.2412 25.4713 28.5151 25.6083 28.652 25.8137 28.5835 26.1561 28.5835 26.8408 28.5835 27.5255 28.5835 28.1418 28.652 29.032 28.1727 29.6482 27.4195 29.9221 26.6663 30.196 25.8446 30.4014 25.0914 30.4699 22.6263 30.6753 20.0928 30.7438 17.6278 30.333 17.2169 30.2645 16.8061 30.1275 16.3952 29.9906 15.5736 29.6482 15.0942 29.032 15.1627 28.1418 15.1627 27.4571 15.1627 26.7723 15.1627 26.0876 15.1627 25.8137 15.2312 25.6768 15.4366 25.5398 16.6007 24.8551 17.6962 24.1703 18.8603 23.4856 19.1342 23.4171 19.3396 23.2802 19.545 23.0748zM21.5308 29.2374C22.9002 29.1689 23.8589 29.1689 24.8175 29.1004 25.4338 29.032 26.1185 28.895 26.7348 28.7581 27.0771 28.6896 27.1456 28.4842 27.1456 28.1418 27.351 27.0462 26.9402 26.293 25.8446 25.8822 25.7077 25.8137 25.5707 25.7452 25.5022 25.6768 24.6806 25.129 23.8589 24.5127 23.0372 23.9649 22.9687 23.8964 22.7633 23.8965 22.6263 23.8965 22.0786 23.8965 21.5992 23.8965 21.0515 23.8965 20.9145 23.8965 20.7091 23.8964 20.6406 23.9649 19.7505 24.9236 18.5864 25.4713 17.4908 26.0876 16.8061 26.4984 16.4637 26.9093 16.6007 27.731 16.6691 28.6896 16.6691 28.6896 17.5593 28.9635 17.6278 28.9635 17.6278 28.9635 17.6962 28.9635 19.2027 29.032 20.5721 29.1689 21.5308 29.2374zM19.682 19.788C19.682 19.9935 19.682 20.1989 19.682 20.4043 19.7505 21.5683 20.7091 22.39 21.8047 22.4585 22.9002 22.527 23.9273 21.7738 24.0643 20.6782 24.1328 20.0619 24.1328 19.4457 23.9958 18.8979 23.6535 17.5284 22.0101 16.8437 20.7776 17.5284 20.0243 18.0077 19.682 18.8294 19.682 19.788zM22.6958 4.44966C22.2164 4.44966 21.7371 4.44966 21.2578 4.44966 21.2578 3.97035 21.2578 3.49103 21.2578 3.01172 21.7371 3.01172 22.2164 3.01172 22.6958 3.01172 22.6958 3.49103 22.6958 3.97035 22.6958 4.44966zM4.68599 14.9267C4.20668 14.9267 3.72736 14.9267 3.24805 14.9267 3.24805 14.4474 3.24805 13.9681 3.24805 13.4888 3.72736 13.4888 4.20668 13.4888 4.68599 13.4888 4.68599 13.9681 4.68599 14.4474 4.68599 14.9267zM40.6352 13.4888C40.6352 13.9681 40.6352 14.4474 40.6352 14.9267 40.1559 14.9267 39.6766 14.9267 39.1973 14.9267 39.1973 14.4474 39.1973 13.9681 39.1973 13.4888 39.6766 13.4888 40.1559 13.4888 40.6352 13.4888zM4.68599 34.4417C4.20668 34.4417 3.72736 34.4417 3.24805 34.4417 3.24805 33.9624 3.24805 33.4831 3.24805 33.0038 3.72736 33.0038 4.20668 33.0038 4.68599 33.0038 4.68599 33.4831 4.68599 33.9624 4.68599 34.4417zM40.6352 33.0038C40.6352 33.4831 40.6352 33.9624 40.6352 34.4417 40.1559 34.4417 39.6766 34.4417 39.1973 34.4417 39.1973 33.9624 39.1973 33.4831 39.1973 33.0038 39.6766 33.0038 40.1559 33.0038 40.6352 33.0038zM22.6958 43.4807C22.6958 43.96 22.6958 44.4393 22.6958 44.9187 22.2164 44.9187 21.7371 44.9187 21.2578 44.9187 21.2578 44.4393 21.2578 43.96 21.2578 43.4807 21.7371 43.4807 22.148 43.4807 22.6958 43.4807z" fill="#fff"/></symbol><symbol viewBox="0 0 23 23" fill="none" id="svg-login"><path d="M1.80675 15.1776C1.22194 15.3995 0.922763 16.0567 1.20106 16.6169C2.19378 18.615 3.75079 20.2892 5.69037 21.4246C7.95702 22.7515 10.6096 23.2625 13.2069 22.8726C15.8043 22.4828 18.1899 21.2156 19.9672 19.2818C21.7445 17.348 22.8062 14.8641 22.976 12.2432C23.1457 9.62222 22.4132 7.02213 20.9002 4.87526C19.3871 2.72839 17.1849 1.16411 14.6595 0.442526C12.1341 -0.279056 9.4378 -0.114455 7.01895 0.908958C4.94913 1.78469 3.18919 3.24411 1.94705 5.09754C1.59882 5.61713 1.81074 6.30741 2.36204 6.60286C2.91335 6.89831 3.59437 6.68584 3.95504 6.17481C4.94393 4.77369 6.30844 3.66905 7.90155 2.99501C9.84398 2.17317 12.0092 2.04099 14.0372 2.62045C16.0651 3.1999 17.8337 4.45608 19.0487 6.18009C20.2637 7.90411 20.8519 9.99207 20.7156 12.0968C20.5793 14.2015 19.7267 16.1962 18.2995 17.7491C16.8723 19.302 14.9565 20.3196 12.8707 20.6326C10.7849 20.9457 8.65486 20.5353 6.83465 19.4698C5.34178 18.5959 4.13115 17.3245 3.33123 15.8076C3.03948 15.2543 2.39155 14.9558 1.80675 15.1776Z" fill="#fff"/><path d="M1.4375 10.6C0.940444 10.6 0.5375 11.0029 0.5375 11.5C0.5375 11.9971 0.940444 12.4 1.4375 12.4L1.4375 10.6ZM16.4489 12.1364C16.8004 11.7849 16.8004 11.2151 16.4489 10.8636L10.7213 5.13604C10.3699 4.78457 9.80001 4.78457 9.44854 5.13604C9.09707 5.48751 9.09707 6.05736 9.44854 6.40883L14.5397 11.5L9.44854 16.5912C9.09707 16.9426 9.09707 17.5125 9.44854 17.864C9.80001 18.2154 10.3699 18.2154 10.7213 17.864L16.4489 12.1364ZM1.4375 12.4L15.8125 12.4V10.6L1.4375 10.6L1.4375 12.4Z" fill="#fff"/></symbol><symbol viewBox="0 0 48 47" fill="none" id="svg-money"><path d="M0 43.075C0 36.4 0 29.8 0 23.125C0.3 22.15 1.05 21.625 1.875 21.175C2.175 21.025 2.475 20.875 2.775 20.8C3.15 20.725 3.225 20.5 3.225 20.2C3.225 15.475 3.225 10.825 3.225 6.1C3.225 2.725 5.625 0.25 8.85 0.25C19.95 0.25 31.125 0.25 42.225 0.25C43.8 0.25 44.775 1.225 44.775 2.875C44.775 5.05 44.775 7.225 44.775 9.4C44.775 9.55 44.775 9.775 44.775 9.925C47.025 10.675 48 11.95 48 14.275C48 22 48 29.8 48 37.525C48 37.975 48 38.425 47.85 38.875C47.4 40.675 45.825 41.875 43.8 41.875C37.125 41.875 30.525 41.875 23.85 41.875C23.625 41.875 23.475 41.875 23.25 41.875C23.25 41.95 23.25 41.95 23.25 41.95C23.25 42.025 23.25 42.1 23.25 42.175C23.325 43.3 22.8 44.125 21.825 44.65C21 45.1 20.1 45.475 19.275 45.7C16.875 46.375 14.325 46.6 11.85 46.6C8.925 46.6 6 46.375 3.15 45.4C1.8 45.025 0.525 44.5 0 43.075ZM46.425 21.85C46.425 21.625 46.425 21.475 46.425 21.325C46.425 18.925 46.425 16.525 46.425 14.125C46.425 12.4 45.45 11.425 43.725 11.425C32.175 11.425 20.55 11.425 9 11.425C7.5 11.425 6.15 10.975 5.025 10C4.95 9.925 4.875 9.925 4.8 9.85C4.8 13.3 4.8 16.675 4.8 20.05C4.95 20.05 5.1 20.05 5.25 19.975C9.225 19.15 13.2 19.15 17.25 19.825C18.825 20.05 20.4 20.5 21.825 21.325C22.725 22 23.25 22.75 23.25 23.95C23.175 29.2 23.25 34.375 23.25 39.625C23.25 39.85 23.25 40 23.25 40.225C23.4 40.225 23.55 40.225 23.7 40.225C30.45 40.225 37.125 40.225 43.875 40.225C45.45 40.225 46.5 39.25 46.5 37.6C46.5 35.2 46.5 32.725 46.5 30.325C46.5 30.175 46.5 30.025 46.5 29.875C45.225 29.875 43.95 29.875 42.75 29.875C42.15 29.875 41.55 29.8 40.95 29.575C39.225 28.9 38.25 26.95 38.625 25.15C39 23.275 40.575 21.925 42.45 21.925C43.65 21.85 45 21.85 46.425 21.85ZM43.2 6.625C42.975 6.625 42.75 6.625 42.525 6.625C30.9 6.625 19.2 6.625 7.575 6.625C6.75 6.625 6.375 6.325 6.375 5.8C6.375 5.275 6.75 4.975 7.575 4.975C19.2 4.975 30.9 4.975 42.525 4.975C42.75 4.975 42.9 4.975 43.2 4.975C43.2 4.225 43.2 3.55 43.2 2.95C43.2 2.05 42.975 1.825 42.075 1.825C31.05 1.825 20.1 1.825 9.075 1.825C8.7 1.825 8.325 1.825 8.025 1.9C6 2.35 4.65 4.225 4.8 6.1C5.025 8.2 6.675 9.775 8.775 9.775C20.1 9.775 31.425 9.775 42.825 9.775C42.975 9.775 43.05 9.775 43.2 9.7C43.2 8.8 43.2 7.75 43.2 6.625ZM11.625 21.025C9.375 21.025 7.125 21.175 4.95 21.775C3.975 22.075 3 22.45 2.1 22.9C1.425 23.275 1.425 23.65 2.1 24.025C2.625 24.325 3.15 24.55 3.675 24.775C5.4 25.375 7.125 25.6 8.925 25.75C12.075 25.975 15.225 25.9 18.375 25.15C19.275 24.925 20.175 24.55 21.075 24.1C21.825 23.725 21.825 23.275 21.075 22.825C20.625 22.525 20.1 22.3 19.575 22.15C16.95 21.25 14.325 21.1 11.625 21.025ZM1.575 25.675C1.575 26.35 1.65 27.025 1.575 27.7C1.5 28.3 1.8 28.75 2.325 28.975C3.45 29.35 4.5 29.875 5.7 30.1C8.85 30.775 12 30.775 15.225 30.475C17.025 30.325 18.75 29.95 20.475 29.275C21.3 28.9 21.825 28.45 21.675 27.4C21.6 26.875 21.675 26.275 21.675 25.75C15.15 28.075 7.875 28.075 1.575 25.675ZM1.575 35.275C1.575 36.025 1.65 36.7 1.575 37.375C1.575 37.975 1.8 38.35 2.25 38.5C3.075 38.875 3.9 39.25 4.8 39.475C9 40.525 13.275 40.45 17.55 39.7C18.75 39.475 19.95 39.175 21 38.5C21.225 38.35 21.6 38.125 21.6 37.825C21.675 37 21.6 36.1 21.6 35.2C18.375 36.7 15 37 11.625 37C8.175 37.075 4.8 36.775 1.575 35.275ZM1.575 40.075C1.575 40.825 1.575 41.5 1.575 42.25C1.575 42.775 1.725 43.15 2.175 43.375C3 43.75 3.75 44.125 4.575 44.35C8.85 45.4 13.2 45.4 17.55 44.575C18.675 44.35 19.8 43.825 20.925 43.45C21.15 43.375 21.525 43.075 21.525 42.85C21.6 42.025 21.525 41.125 21.525 40.225C15.225 42.475 7.875 42.475 1.575 40.075ZM21.6 30.475C18.375 31.975 15 32.275 11.625 32.275C8.25 32.275 4.8 31.975 1.65 30.475C1.65 31.3 1.65 32.05 1.65 32.8C1.65 33.175 1.8 33.475 2.1 33.625C2.7 33.925 3.3 34.225 3.9 34.45C5.85 35.125 7.95 35.35 9.975 35.425C12.825 35.575 15.675 35.425 18.45 34.675C19.35 34.45 20.25 34 21.075 33.625C21.3 33.55 21.6 33.175 21.6 32.95C21.6 32.2 21.6 31.375 21.6 30.475ZM46.35 28.225C46.35 26.575 46.35 25 46.35 23.425C44.925 23.425 43.575 23.425 42.225 23.425C41.025 23.5 40.05 24.55 40.05 25.75C40.05 26.95 40.95 28.075 42.15 28.15C43.5 28.3 44.925 28.225 46.35 28.225Z" fill="#CF51CE"/></symbol><symbol viewBox="0 0 20 19" fill="none" id="svg-phone"><path d="M13.1225 13.327L14.7379 11.7116C14.9554 11.4967 15.2307 11.3496 15.5303 11.2882C15.8298 11.2267 16.1408 11.2536 16.4254 11.3654L18.3941 12.1515C18.6817 12.2682 18.9283 12.4675 19.1029 12.7242C19.2774 12.9808 19.3721 13.2834 19.3749 13.5938V17.1996C19.3732 17.4107 19.3288 17.6194 19.2444 17.8129C19.16 18.0064 19.0373 18.1809 18.8837 18.3257C18.73 18.4706 18.5487 18.5829 18.3505 18.6558C18.1524 18.7287 17.9415 18.7608 17.7307 18.7501C3.93494 17.8919 1.15128 6.20918 0.624838 1.73801C0.6004 1.51845 0.622729 1.2962 0.690354 1.08588C0.757979 0.875564 0.869369 0.681949 1.0172 0.517773C1.16502 0.353597 1.34593 0.222582 1.54803 0.133345C1.75013 0.0441085 1.96883 -0.00132632 2.18975 2.94729e-05H5.67293C5.98375 0.000949514 6.2872 0.094838 6.54423 0.269619C6.80126 0.444399 7.00012 0.692079 7.11524 0.980802L7.9013 2.94956C8.01687 3.23302 8.04635 3.54425 7.98607 3.84438C7.92579 4.1445 7.77842 4.42021 7.56236 4.63706L5.94697 6.25245C5.94697 6.25245 6.87726 12.5481 13.1225 13.327Z" fill="#331A2F"/></symbol><symbol viewBox="0 0 10 9" fill="none" id="svg-triangle"><path d="M5.92254 7.53442C5.49466 8.21378 4.50428 8.21378 4.07639 7.53442L0.384211 1.6723C-0.0733381 0.945841 0.448747 -1.92373e-06 1.30729 -1.84868e-06L8.69165 -1.20312e-06C9.55019 -1.12806e-06 10.0723 0.945839 9.61472 1.6723L5.92254 7.53442Z" fill="#331A2F" fill-opacity=".9"/></symbol><symbol viewBox="0 0 17 22" fill="none" id="svg-"><path d="M2.91 21.5V0.0799986H8.55C11.17 0.0799986 13.11 0.609999 14.37 1.67C15.65 2.73 16.29 4.27 16.29 6.29C16.29 7.65 15.98 8.82 15.36 9.8C14.74 10.76 13.82 11.5 12.6 12.02C11.4 12.54 9.91 12.8 8.13 12.8H5.61V21.5H2.91ZM0.3 17.42V15.47H10.56V17.42H0.3ZM0.3 12.8V10.52H7.17V12.8H0.3ZM7.74 10.52C8.96 10.52 9.99 10.39 10.83 10.13C11.69 9.87 12.35 9.44 12.81 8.84C13.27 8.24 13.5 7.42 13.5 6.38C13.5 5.02 13.08 4.01 12.24 3.35C11.4 2.69 10.09 2.36 8.31 2.36H5.61V10.52H7.74Z" fill="#331A2F" fill-opacity=".8"/></symbol></svg>