<svg width="17" height="22" viewBox="0 0 17 22" fill="none" xmlns="http://www.w3.org/2000/svg">
<path d="M2.91 21.5V0.0799986H8.55C11.17 0.0799986 13.11 0.609999 14.37 1.67C15.65 2.73 16.29 4.27 16.29 6.29C16.29 7.65 15.98 8.82 15.36 9.8C14.74 10.76 13.82 11.5 12.6 12.02C11.4 12.54 9.91 12.8 8.13 12.8H5.61V21.5H2.91ZM0.3 17.42V15.47H10.56V17.42H0.3ZM0.3 12.8V10.52H7.17V12.8H0.3ZM7.74 10.52C8.96 10.52 9.99 10.39 10.83 10.13C11.69 9.87 12.35 9.44 12.81 8.84C13.27 8.24 13.5 7.42 13.5 6.38C13.5 5.02 13.08 4.01 12.24 3.35C11.4 2.69 10.09 2.36 8.31 2.36H5.61V10.52H7.74Z" fill="#331A2F" fill-opacity="0.8"/>
</svg>
